<svg xmlns="http://www.w3.org/2000/svg" width="1146" height="644" fill="none" viewBox="0 0 1146 644"><g clip-path="url(#clip0_566_4606)"><g opacity=".1"><path fill="#E8505B" d="M762.428 93.3608L567.656 21.8896L374.836 92.4252C350.191 104.301 328.654 111.427 328.654 134.818V251.49C328.654 332.534 349.468 412.786 392.181 483.681C428.172 543.349 483.893 604.743 569.607 643.754C648.455 617.627 707.284 547.883 743.276 488.216C786.06 417.32 806.802 337.068 806.802 256.024V151.157C806.73 117.688 789.457 101.422 762.428 93.3608Z"/></g><path fill="#E8505B" d="M686.612 388.674H650.838V194.701C650.838 149.069 613.546 111.93 567.725 111.93C521.905 111.93 484.613 149.069 484.613 194.701V388.674H448.839V194.701C448.839 129.42 502.175 76.2305 567.798 76.2305C633.348 76.2305 686.757 129.348 686.757 194.701V388.674H686.612Z"/><path fill="#1A2E35" d="M686.612 388.674H650.838V194.701C650.838 149.069 613.546 111.93 567.725 111.93C521.905 111.93 484.613 149.069 484.613 194.701V388.674H448.839V194.701C448.839 129.42 502.175 76.2305 567.798 76.2305C633.348 76.2305 686.757 129.348 686.757 194.701V388.674H686.612Z"/><path fill="#E8505B" d="M711.329 507.218H424.05C414.872 507.218 407.428 499.804 407.428 490.664V318.931C407.428 309.79 414.872 302.377 424.05 302.377H711.329C720.508 302.377 727.952 309.79 727.952 318.931V490.592C727.952 499.804 720.508 507.218 711.329 507.218Z"/><path fill="#1A2E35" d="M594.471 378.093C594.471 363.339 582.474 351.391 567.658 351.391C552.843 351.391 540.846 363.339 540.846 378.093C540.846 390.257 549.085 400.478 560.359 403.645V443.519H574.958V403.645C586.232 400.478 594.471 390.329 594.471 378.093Z"/><path fill="#FAFAFA" d="M424.491 487.783C423.769 487.783 423.19 453.595 423.19 411.49C423.19 369.384 423.769 335.196 424.491 335.196C425.214 335.196 425.792 369.312 425.792 411.49C425.864 453.595 425.214 487.783 424.491 487.783Z"/><path fill="#FAFAFA" d="M546.703 412.282C546.631 412.426 545.474 411.85 543.595 410.482C541.716 409.115 539.187 406.812 536.657 403.501C531.67 396.951 527.117 385.147 530.08 372.336C533.188 359.596 542.583 351.031 550.027 347.432C553.785 345.561 557.038 344.625 559.35 344.265C561.663 343.905 562.964 343.905 562.964 344.049C563.108 344.553 557.905 345.057 550.967 349.088C544.101 352.902 535.573 361.179 532.682 372.983C529.936 384.787 533.838 396.015 538.247 402.493C542.583 409.187 547.064 411.922 546.703 412.282Z"/><g opacity=".3"><path fill="#E8505B" d="M808.464 598.481C808.464 598.481 809.259 597.402 810.776 595.386C811.138 594.882 811.571 594.307 812.077 593.659C812.511 593.011 812.945 592.219 813.378 591.428C814.318 589.772 815.474 587.901 816.341 585.598C816.775 584.446 817.353 583.222 817.787 581.927C818.148 580.559 818.582 579.192 818.943 577.68C819.449 576.241 819.666 574.657 819.955 573.002C820.172 571.347 820.605 569.619 820.678 567.82C821.473 560.55 820.967 552.129 819.521 542.773C816.63 524.059 808.681 502.035 796.467 478.067C784.325 454.099 767.558 428.26 746.961 401.342C726.363 374.423 701.574 346.641 673.099 318.714C644.552 290.86 612.319 262.79 576.111 236.303C558.043 223.059 538.891 210.176 518.8 198.084C498.708 185.92 477.46 174.62 455.129 164.832C432.797 155.115 409.164 146.694 384.303 142.735C371.872 140.864 359.08 139.928 346.505 141.8C340.217 142.735 334.074 144.463 328.22 147.054C322.51 149.861 317.235 153.532 312.898 158.21C308.707 163.032 305.599 168.646 303.503 174.62C301.552 180.666 300.54 186.928 300.323 193.262C299.817 205.929 302.202 218.525 305.527 230.545C312.32 254.728 323.45 277.113 335.664 298.129C348.022 319.146 361.682 338.867 376.064 357.365C390.446 375.934 405.406 393.352 420.727 409.763C451.298 442.511 482.953 471.301 514.03 496.349C545.107 521.324 575.677 542.701 604.875 560.047C634.073 577.392 661.753 590.996 687.048 600.353C712.343 609.709 735.18 615.035 754.188 615.827C763.655 616.187 772.111 615.683 779.266 614.1C781.073 613.812 782.735 613.164 784.325 612.804C785.987 612.372 787.505 611.941 788.878 611.293C790.324 610.717 791.697 610.141 792.998 609.637C794.226 609.061 795.383 608.342 796.467 607.766C798.707 606.686 800.442 605.319 801.959 604.167C802.682 603.591 803.477 603.088 804.055 602.584C804.633 602.008 805.139 601.576 805.645 601.072C807.452 599.345 808.464 598.481 808.464 598.481C808.464 598.481 807.596 599.417 805.717 601.216C805.284 601.648 804.778 602.152 804.2 602.728C803.622 603.232 802.899 603.735 802.104 604.311C800.586 605.463 798.852 606.83 796.611 607.982C795.527 608.558 794.371 609.277 793.142 609.925C791.841 610.429 790.468 611.005 789.023 611.581C787.577 612.228 786.06 612.66 784.397 613.164C782.735 613.596 781.073 614.244 779.266 614.532C772.111 616.187 763.583 616.691 754.043 616.403C734.964 615.755 711.981 610.429 686.614 601.144C661.174 591.859 633.495 578.256 604.225 560.982C574.955 543.708 544.312 522.332 513.163 497.356C482.014 472.309 450.359 443.591 419.643 410.77C404.322 394.36 389.289 376.87 374.907 358.301C360.453 339.731 346.721 320.01 334.363 298.921C322.077 277.832 310.947 255.376 304.081 230.977C300.757 218.813 298.3 206.145 298.805 193.262C299.022 186.856 300.106 180.378 302.058 174.188C304.226 168.071 307.478 162.241 311.742 157.274C316.223 152.452 321.643 148.637 327.569 145.758C333.568 143.095 339.856 141.368 346.216 140.36C359.008 138.417 371.944 139.353 384.447 141.296C409.525 145.326 433.23 153.819 455.634 163.536C478.039 173.397 499.286 184.697 519.45 196.933C539.614 209.096 558.766 221.98 576.834 235.223C613.042 261.854 645.347 289.924 673.894 317.851C702.369 345.849 727.158 373.703 747.756 400.694C768.353 427.684 785.048 453.595 797.189 477.707C809.331 501.747 817.281 523.843 820.099 542.701C821.545 552.057 821.979 560.55 821.111 567.82C821.039 569.619 820.605 571.347 820.316 573.002C820.027 574.657 819.81 576.241 819.305 577.752C818.871 579.264 818.509 580.631 818.076 581.999C817.57 583.294 817.064 584.518 816.558 585.67C815.691 588.045 814.462 589.916 813.523 591.5C813.017 592.291 812.656 593.083 812.15 593.731C811.644 594.379 811.21 594.882 810.776 595.458C809.259 597.474 808.464 598.481 808.464 598.481Z"/></g><g opacity=".3"><path fill="#E8505B" d="M900.102 378.166C900.102 378.166 899.958 376.87 899.741 374.351C899.669 373.703 899.669 372.983 899.597 372.192C899.452 371.4 899.235 370.536 899.091 369.673C898.657 367.801 898.296 365.642 897.356 363.339C896.923 362.187 896.561 360.892 895.983 359.596C895.333 358.372 894.682 357.005 894.032 355.637C893.381 354.198 892.514 352.902 891.647 351.463C890.707 350.095 889.912 348.512 888.684 347.144C884.42 341.242 878.421 335.269 871.122 329.223C856.451 317.203 835.781 306.047 810.703 296.258C785.552 286.397 755.776 278.264 722.459 271.858C689.07 265.453 651.995 261.134 612.101 259.191C572.207 257.32 529.35 257.751 484.614 261.926C462.282 264.013 439.444 267.108 416.317 271.427C393.191 275.673 369.847 281.287 346.575 288.845C323.449 296.474 300.177 305.759 278.929 319.29C268.378 326.056 258.26 333.901 250.093 343.618C246.046 348.512 242.577 353.838 239.975 359.668C237.59 365.498 236.145 371.76 236 378.166C236.145 384.571 237.518 390.761 239.975 396.663C242.577 402.421 246.046 407.819 250.093 412.714C258.187 422.502 268.378 430.276 278.929 437.113C300.177 450.644 323.449 460.001 346.575 467.559C369.847 475.044 393.191 480.658 416.317 484.977C439.444 489.295 462.282 492.39 484.614 494.477C529.35 498.652 572.207 499.156 612.101 497.212C651.995 495.269 689.07 490.95 722.459 484.545C755.849 478.139 785.552 469.934 810.703 460.145C835.781 450.357 856.451 439.2 871.122 427.181C878.421 421.207 884.42 415.233 888.684 409.259C889.84 407.891 890.635 406.308 891.647 404.94C892.586 403.501 893.453 402.205 894.032 400.766C894.682 399.398 895.333 398.103 895.983 396.807C896.489 395.512 896.923 394.288 897.356 393.064C898.296 390.761 898.657 388.602 899.091 386.731C899.307 385.795 899.524 384.931 899.597 384.212C899.669 383.42 899.741 382.7 899.741 382.052C899.958 379.461 900.102 378.166 900.102 378.166C900.102 378.166 900.03 379.461 899.886 382.052C899.813 382.7 899.813 383.42 899.741 384.212C899.669 385.003 899.452 385.867 899.235 386.803C898.874 388.674 898.513 390.833 897.573 393.208C897.139 394.36 896.778 395.656 896.272 396.951C895.694 398.175 895.043 399.542 894.321 400.91C893.67 402.349 892.803 403.717 891.936 405.084C890.996 406.452 890.201 408.107 889.045 409.475C884.781 415.449 878.782 421.495 871.483 427.54C856.812 439.704 836.142 451.004 810.992 460.865C785.841 470.797 756.065 479.003 722.676 485.552C689.287 492.03 652.139 496.421 612.173 498.436C572.207 500.379 529.35 499.947 484.469 495.773C462.065 493.686 439.155 490.591 416.028 486.344C392.829 482.098 369.413 476.483 346.07 468.926C322.798 461.297 299.454 451.94 278.062 438.337C267.438 431.499 257.176 423.582 248.937 413.649C244.817 408.683 241.276 403.213 238.602 397.239C236.145 391.193 234.627 384.715 234.555 378.166C234.699 371.544 236.145 365.138 238.674 359.092C241.348 353.118 244.89 347.648 249.009 342.682C257.248 332.749 267.583 324.904 278.134 318.066C299.527 304.463 322.87 295.106 346.142 287.477C369.485 279.92 392.901 274.306 416.101 270.059C439.3 265.741 462.137 262.718 484.542 260.63C529.35 256.456 572.207 256.024 612.173 257.967C652.139 259.983 689.287 264.373 722.676 270.851C756.065 277.329 785.841 285.606 810.992 295.538C836.142 305.399 856.812 316.699 871.483 328.863C878.782 334.909 884.781 340.955 889.045 346.928C890.201 348.368 890.996 349.951 891.936 351.319C892.875 352.758 893.743 354.126 894.321 355.493C894.971 356.861 895.622 358.229 896.272 359.452C896.778 360.748 897.212 362.043 897.573 363.195C898.513 365.498 898.874 367.729 899.235 369.601C899.38 370.536 899.597 371.4 899.741 372.192C899.813 372.983 899.813 373.703 899.886 374.351C900.103 376.798 900.102 378.166 900.102 378.166Z"/></g><g opacity=".3"><path fill="#E8505B" d="M778.687 103.87C778.687 103.87 777.53 103.15 775.435 101.782C774.929 101.422 774.278 101.063 773.628 100.631C772.905 100.271 772.11 99.911 771.315 99.4791C769.581 98.6874 767.629 97.6078 765.244 96.96C764.088 96.6001 762.787 96.0963 761.486 95.7364C760.113 95.4485 758.668 95.1606 757.15 94.8727C755.632 94.5128 754.042 94.3689 752.38 94.2249C750.718 94.153 748.983 93.7931 747.104 93.8651C739.805 93.5772 731.349 94.6568 722.098 96.7441C703.524 100.919 682.06 110.347 658.861 124.095C635.662 137.842 610.945 156.267 585.433 178.58C559.921 200.892 533.759 227.451 507.741 257.68C481.796 287.91 455.922 321.954 431.856 359.741C419.859 378.67 408.296 398.463 397.527 419.336C386.759 440.137 376.857 462.017 368.619 484.905C360.452 507.793 353.658 531.833 351.346 556.808C350.262 569.26 350.262 582.072 353.008 594.379C354.381 600.569 356.549 606.543 359.512 612.157C362.692 617.627 366.739 622.594 371.726 626.624C376.857 630.439 382.711 633.174 388.782 634.829C394.998 636.341 401.358 636.917 407.717 636.701C420.437 636.269 432.868 633.102 444.72 628.927C468.498 620.506 490.107 607.911 510.343 594.307C530.579 580.632 549.297 565.661 566.859 550.043C584.421 534.496 600.899 518.374 616.221 502.107C646.936 469.431 673.604 436.034 696.514 403.43C719.424 370.825 738.721 339.012 754.042 308.782C769.364 278.625 781.144 250.195 788.733 224.356C796.321 198.589 800.151 175.485 799.573 156.555C799.284 147.127 798.2 138.706 796.104 131.724C795.743 129.925 794.948 128.341 794.442 126.758C793.864 125.174 793.358 123.663 792.635 122.295C791.985 120.928 791.334 119.632 790.684 118.337C789.961 117.113 789.238 116.033 788.588 115.026C787.359 112.866 785.842 111.211 784.613 109.772C783.963 109.052 783.457 108.332 782.879 107.828C782.3 107.324 781.794 106.821 781.289 106.389C779.626 104.733 778.687 103.87 778.687 103.87C778.687 103.87 779.699 104.733 781.65 106.389C782.156 106.821 782.662 107.252 783.24 107.828C783.818 108.404 784.324 109.052 784.974 109.772C786.203 111.211 787.721 112.795 789.022 114.954C789.672 116.033 790.467 117.113 791.19 118.265C791.84 119.488 792.491 120.856 793.141 122.223C793.864 123.591 794.442 125.102 795.02 126.686C795.526 128.269 796.321 129.853 796.755 131.652C798.923 138.634 800.007 147.055 800.368 156.555C801.019 175.557 797.261 198.733 789.744 224.572C782.228 250.483 770.52 278.985 755.199 309.214C739.877 339.516 720.653 371.401 697.743 404.077C674.833 436.754 648.165 470.222 617.449 502.971C602.055 519.309 585.577 535.432 568.015 551.05C550.453 566.669 531.591 581.712 511.355 595.459C491.046 609.062 469.293 621.73 445.371 630.223C433.446 634.397 420.871 637.636 407.934 638.068C401.502 638.284 394.925 637.708 388.565 636.125C382.278 634.397 376.207 631.59 370.931 627.632C365.8 623.529 361.608 618.347 358.284 612.733C355.176 606.975 353.008 600.857 351.635 594.595C348.816 582 348.888 569.116 349.9 556.52C352.213 531.329 359.079 507.218 367.245 484.258C375.557 461.298 385.458 439.417 396.299 418.544C407.067 397.672 418.703 377.807 430.7 358.877C454.838 321.09 480.784 287.046 506.802 256.816C532.892 226.587 559.126 200.028 584.71 177.716C610.294 155.404 635.156 136.978 658.427 123.303C681.698 109.556 703.308 100.199 721.954 96.0963C731.277 94.009 739.732 93.0014 747.104 93.3612C748.911 93.2893 750.718 93.6491 752.38 93.7931C754.042 93.937 755.704 94.081 757.222 94.5128C758.74 94.8007 760.185 95.1606 761.558 95.4485C762.932 95.8084 764.16 96.3122 765.317 96.6721C767.774 97.3918 769.653 98.3995 771.387 99.2632C772.255 99.695 773.05 100.055 773.7 100.487C774.35 100.919 774.929 101.35 775.507 101.71C777.603 103.078 778.687 103.87 778.687 103.87Z"/></g><g opacity=".2"><path fill="#E8505B" d="M231.663 514.774C236.506 519.597 236.506 527.37 231.663 532.192C226.821 537.015 219.016 537.015 214.174 532.192C209.331 527.37 209.331 519.597 214.174 514.774C219.016 509.952 226.821 509.952 231.663 514.774Z"/></g><g opacity=".2"><path fill="#E8505B" d="M928.212 133.811C928.212 140.577 922.719 146.119 915.854 146.119C909.06 146.119 903.495 140.649 903.495 133.811C903.495 126.974 908.988 121.503 915.854 121.503C922.647 121.503 928.212 126.974 928.212 133.811Z"/></g><g opacity=".2"><path fill="#E8505B" d="M309.646 555.225C309.646 556.952 308.273 558.32 306.538 558.32C304.804 558.32 303.431 556.952 303.431 555.225C303.431 553.497 304.804 552.13 306.538 552.13C308.273 552.13 309.646 553.497 309.646 555.225Z"/></g><path fill="#E8505B" d="M376.568 210.68C376.568 212.407 375.195 213.775 373.46 213.775C371.726 213.775 370.353 212.407 370.353 210.68C370.353 208.953 371.726 207.585 373.46 207.585C375.195 207.513 376.568 208.953 376.568 210.68Z" opacity=".2"/><g opacity=".2"><path fill="#E8505B" d="M866.205 378.166C866.205 379.894 864.831 381.261 863.097 381.261C861.362 381.261 859.989 379.894 859.989 378.166C859.989 376.439 861.362 375.071 863.097 375.071C864.759 374.999 866.205 376.439 866.205 378.166Z"/></g><g opacity=".2"><path fill="#E8505B" d="M909.785 232.489C909.785 234.216 908.411 235.584 906.677 235.584C904.942 235.584 903.569 234.216 903.569 232.489C903.569 230.761 904.942 229.394 906.677 229.394C908.411 229.322 909.785 230.761 909.785 232.489Z"/></g><g opacity=".5"><path fill="#FF735D" d="M820.757 355.781C822.78 355.061 824.876 354.702 826.9 354.558L829.285 349.231L838.752 351.103L838.897 356.933C840.776 357.868 842.51 359.02 844.173 360.388L849.593 358.3L855.013 366.29L851.038 370.536C851.761 372.551 852.122 374.639 852.267 376.654L857.615 379.029L855.736 388.458L849.882 388.602C848.942 390.473 847.786 392.201 846.413 393.856L848.509 399.254L840.487 404.652L836.223 400.694C834.199 401.413 832.103 401.773 830.08 401.917L827.695 407.243L818.227 405.372L818.083 399.542C816.204 398.606 814.469 397.455 812.807 396.087L807.386 398.174L801.966 390.185L805.941 385.939C805.218 383.923 804.857 381.836 804.712 379.821L799.364 377.446L801.243 368.017L807.097 367.873C808.037 366.002 809.193 364.274 810.566 362.619L808.471 357.221L816.493 351.823L820.757 355.781ZM823.069 369.384C818.299 372.551 817.071 378.957 820.251 383.707C823.431 388.458 829.863 389.681 834.633 386.514C839.403 383.348 840.631 376.942 837.451 372.191C834.271 367.441 827.839 366.218 823.069 369.384Z"/></g><g opacity=".5"><path fill="#FF735D" d="M274.161 354.63C275.101 354.63 275.679 355.134 275.968 356.069C276.113 356.573 276.619 357.077 276.474 357.509C276.33 357.941 275.607 358.013 275.101 358.229C274.667 358.445 274.161 358.876 273.8 358.661C273.511 358.517 273.439 357.869 273.222 357.509C273.15 357.437 273.15 357.293 273.077 357.221C272.644 356.429 272.788 355.71 273.366 355.062C273.656 354.846 273.945 354.702 274.161 354.63Z"/><path fill="#FF735D" d="M279.726 352.255C280.665 352.255 281.244 352.759 281.533 353.694C281.677 354.198 282.183 354.702 282.039 355.134C281.894 355.566 281.171 355.638 280.665 355.854C280.232 356.07 279.726 356.501 279.365 356.285C279.075 356.142 279.003 355.494 278.786 355.134C278.714 355.062 278.714 354.918 278.642 354.846C278.208 354.054 278.353 353.334 278.931 352.687C279.22 352.471 279.509 352.327 279.726 352.255Z"/><path fill="#FF735D" d="M285.289 349.879C286.229 349.879 286.807 350.383 287.096 351.319C287.241 351.823 287.747 352.327 287.602 352.758C287.457 353.19 286.735 353.262 286.229 353.478C285.795 353.694 285.289 354.126 284.928 353.91C284.639 353.766 284.567 353.118 284.35 352.758C284.278 352.686 284.278 352.542 284.205 352.47C283.772 351.679 283.916 350.959 284.494 350.311C284.783 350.095 285.073 350.023 285.289 349.879Z"/><path fill="#FF735D" d="M290.856 347.504C291.795 347.504 292.373 348.008 292.663 348.944C292.807 349.448 293.313 349.952 293.168 350.383C293.024 350.815 292.301 350.887 291.795 351.103C291.362 351.319 290.856 351.751 290.494 351.535C290.205 351.391 290.133 350.743 289.916 350.383C289.844 350.311 289.844 350.167 289.772 350.095C289.338 349.304 289.483 348.584 290.061 347.936C290.35 347.72 290.567 347.648 290.856 347.504Z"/><path fill="#FF735D" d="M296.419 345.129C297.359 345.129 297.937 345.633 298.226 346.568C298.371 347.072 298.876 347.576 298.732 348.008C298.587 348.44 297.865 348.512 297.359 348.728C296.925 348.944 296.419 349.375 296.058 349.16C295.769 349.016 295.696 348.368 295.48 348.008C295.407 347.936 295.407 347.792 295.335 347.72C294.902 346.928 295.046 346.209 295.624 345.561C295.913 345.345 296.13 345.273 296.419 345.129Z"/><path fill="#FF735D" d="M301.985 342.754C302.924 342.754 303.502 343.258 303.791 344.193C303.936 344.697 304.442 345.201 304.297 345.633C304.153 346.065 303.43 346.137 302.924 346.353C302.491 346.569 301.985 347 301.623 346.785C301.334 346.641 301.262 345.993 301.045 345.633C300.973 345.561 300.973 345.417 300.901 345.345C300.467 344.553 300.611 343.834 301.19 343.186C301.479 342.97 301.696 342.898 301.985 342.754Z"/><path fill="#FF735D" d="M268.018 368.377C268.018 367.441 268.523 366.866 269.463 366.578C269.969 366.434 270.475 365.93 270.908 366.074C271.342 366.218 271.414 366.938 271.631 367.441C271.848 367.873 272.282 368.377 272.065 368.737C271.92 369.025 271.27 369.097 270.908 369.313C270.836 369.385 270.692 369.385 270.619 369.457C269.824 369.889 269.102 369.745 268.451 369.169C268.234 368.881 268.09 368.593 268.018 368.377Z"/><path fill="#FF735D" d="M270.403 373.92C270.403 372.984 270.909 372.408 271.849 372.12C272.355 371.976 272.861 371.472 273.294 371.616C273.728 371.76 273.8 372.48 274.017 372.984C274.234 373.416 274.667 373.92 274.451 374.279C274.306 374.567 273.656 374.639 273.294 374.855C273.222 374.927 273.077 374.927 273.005 374.999C272.21 375.431 271.487 375.287 270.837 374.711C270.62 374.423 270.476 374.136 270.403 373.92Z"/><path fill="#FF735D" d="M272.788 379.461C272.788 378.525 273.294 377.95 274.234 377.662C274.739 377.518 275.245 377.014 275.679 377.158C276.113 377.302 276.185 378.022 276.402 378.525C276.618 378.957 277.052 379.461 276.835 379.821C276.691 380.109 276.04 380.181 275.679 380.397C275.607 380.469 275.462 380.469 275.39 380.541C274.595 380.973 273.872 380.829 273.222 380.253C273.005 379.965 272.86 379.677 272.788 379.461Z"/><path fill="#FF735D" d="M275.172 385.003C275.172 384.067 275.678 383.492 276.617 383.204C277.123 383.06 277.629 382.556 278.063 382.7C278.496 382.844 278.569 383.564 278.785 384.067C279.002 384.499 279.436 385.003 279.219 385.363C279.075 385.651 278.424 385.723 278.063 385.939C277.99 386.011 277.846 386.011 277.774 386.083C276.979 386.515 276.256 386.371 275.605 385.795C275.316 385.435 275.244 385.219 275.172 385.003Z"/><path fill="#FF735D" d="M277.486 390.546C277.486 389.61 277.992 389.034 278.932 388.746C279.438 388.602 279.944 388.098 280.377 388.242C280.811 388.386 280.883 389.106 281.1 389.61C281.317 390.042 281.75 390.546 281.534 390.905C281.389 391.193 280.739 391.265 280.377 391.481C280.305 391.553 280.16 391.553 280.088 391.625C279.293 392.057 278.57 391.913 277.92 391.337C277.703 390.977 277.631 390.762 277.486 390.546Z"/><path fill="#FF735D" d="M279.87 396.015C279.87 395.08 280.376 394.504 281.316 394.216C281.821 394.072 282.327 393.568 282.761 393.712C283.195 393.856 283.267 394.576 283.484 395.08C283.701 395.512 284.134 396.015 283.917 396.375C283.773 396.663 283.122 396.735 282.761 396.951C282.689 397.023 282.544 397.023 282.472 397.095C281.677 397.527 280.954 397.383 280.304 396.807C280.087 396.519 280.015 396.303 279.87 396.015Z"/><path fill="#FF735D" d="M290.351 354.918C295.627 352.687 300.975 350.383 306.251 348.152C307.407 347.648 308.13 347.936 308.636 349.088C313.189 359.668 317.742 370.249 322.223 380.829C322.729 381.981 322.439 382.7 321.211 383.204C310.587 387.739 299.963 392.201 289.411 396.735C288.255 397.239 287.532 396.951 287.026 395.8C282.473 385.219 277.92 374.639 273.439 364.059C272.933 362.907 273.223 362.187 274.379 361.684C279.727 359.452 285.003 357.221 290.351 354.918Z"/><path fill="#FF735D" d="M312.247 349.952C312.103 349.592 311.958 349.232 311.741 348.872C311.669 348.656 311.669 348.584 311.886 348.512C312.464 348.296 313.042 348.008 313.621 347.792C314.415 347.504 315.21 347.864 315.572 348.584C315.861 349.304 315.572 350.167 314.849 350.527C314.271 350.815 313.693 351.031 313.115 351.319C312.898 351.391 312.826 351.391 312.753 351.175C312.609 350.743 312.464 350.311 312.247 349.952Z"/><path fill="#FF735D" d="M315.211 353.623C315.5 353.479 315.789 353.407 316.079 353.263C316.874 352.975 317.669 353.335 318.03 354.055C318.391 354.774 318.03 355.71 317.235 355.998C316.657 356.286 316.079 356.502 315.5 356.718C315.284 356.862 315.211 356.718 315.139 356.574C314.85 355.854 314.489 355.062 314.199 354.343C314.127 354.127 314.127 354.055 314.344 353.911C314.633 353.911 314.922 353.767 315.211 353.623Z"/><path fill="#FF735D" d="M317.016 361.036C316.871 360.676 316.727 360.316 316.51 359.956C316.438 359.74 316.438 359.668 316.655 359.596C317.233 359.381 317.811 359.093 318.389 358.877C319.184 358.589 319.979 358.949 320.34 359.668C320.63 360.388 320.34 361.252 319.618 361.612C319.04 361.9 318.389 362.116 317.811 362.403C317.594 362.475 317.522 362.404 317.45 362.26C317.377 361.756 317.16 361.396 317.016 361.036Z"/><path fill="#FF735D" d="M319.403 366.577C319.258 366.218 319.114 365.858 318.897 365.498C318.824 365.282 318.824 365.21 319.041 365.138C319.619 364.922 320.198 364.634 320.776 364.418C321.571 364.13 322.366 364.49 322.727 365.21C323.016 365.93 322.727 366.793 322.004 367.153C321.426 367.441 320.776 367.657 320.198 367.945C319.981 368.017 319.909 367.945 319.836 367.801C319.764 367.297 319.547 366.937 319.403 366.577Z"/><path fill="#FF735D" d="M321.786 372.12C321.642 371.76 321.497 371.4 321.281 371.04C321.208 370.824 321.208 370.752 321.425 370.68C322.003 370.465 322.581 370.177 323.16 369.961C323.955 369.673 324.75 370.033 325.111 370.752C325.4 371.472 325.111 372.336 324.388 372.696C323.81 372.984 323.16 373.2 322.581 373.488C322.365 373.559 322.292 373.487 322.22 373.344C322.076 372.84 321.931 372.48 321.786 372.12Z"/><path fill="#FF735D" d="M324.172 377.59C324.028 377.302 323.956 376.942 323.739 376.654C323.594 376.367 323.594 376.151 323.956 376.079C324.461 375.935 324.967 375.647 325.473 375.431C326.268 375.071 327.135 375.431 327.497 376.223C327.786 377.014 327.497 377.806 326.702 378.166C326.124 378.382 325.618 378.598 325.04 378.886C324.823 378.958 324.751 378.958 324.606 378.742C324.461 378.382 324.317 378.022 324.172 377.59Z"/><path fill="#FF735D" d="M292.66 398.679C293.022 398.535 293.383 398.391 293.744 398.247C293.961 398.103 294.106 398.175 294.178 398.463C294.395 399.038 294.612 399.542 294.828 400.046C295.19 400.838 294.828 401.702 294.033 402.061C293.238 402.349 292.371 402.061 292.01 401.198C291.793 400.694 291.576 400.118 291.359 399.614C291.215 399.398 291.287 399.254 291.504 399.11C291.938 399.038 292.299 398.823 292.66 398.679Z"/><path fill="#FF735D" d="M298.228 396.303C298.589 396.159 298.95 396.015 299.312 395.871C299.529 395.727 299.673 395.799 299.745 396.087C299.962 396.663 300.179 397.167 300.396 397.671C300.757 398.462 300.396 399.326 299.601 399.686C298.806 399.974 297.939 399.686 297.577 398.822C297.36 398.318 297.144 397.743 296.927 397.239C296.782 397.023 296.854 396.879 297.071 396.735C297.505 396.663 297.866 396.447 298.228 396.303Z"/><path fill="#FF735D" d="M303.792 393.928C304.153 393.784 304.515 393.64 304.876 393.496C305.093 393.352 305.238 393.424 305.31 393.712C305.527 394.288 305.743 394.792 305.96 395.296C306.322 396.087 305.96 396.951 305.165 397.311C304.37 397.599 303.503 397.311 303.142 396.447C302.925 395.943 302.708 395.368 302.491 394.864C302.347 394.648 302.419 394.504 302.636 394.36C303.069 394.288 303.431 394.144 303.792 393.928Z"/><path fill="#FF735D" d="M309.358 391.553C309.719 391.409 310.08 391.265 310.442 391.121C310.658 390.977 310.803 391.049 310.875 391.337C311.092 391.913 311.309 392.417 311.526 392.921C311.887 393.712 311.526 394.576 310.731 394.936C309.936 395.224 309.068 394.936 308.707 394.072C308.49 393.568 308.273 392.993 308.057 392.489C307.912 392.273 307.984 392.129 308.201 391.985C308.635 391.913 308.996 391.769 309.358 391.553Z"/><path fill="#FF735D" d="M314.922 389.25C315.283 389.106 315.645 388.962 316.006 388.818C316.223 388.674 316.367 388.746 316.44 389.034C316.657 389.61 316.873 390.114 317.09 390.617C317.452 391.409 317.09 392.273 316.295 392.633C315.5 392.921 314.633 392.633 314.272 391.769C314.055 391.265 313.838 390.689 313.621 390.186C313.477 389.97 313.549 389.826 313.766 389.682C314.199 389.538 314.561 389.394 314.922 389.25Z"/><path fill="#FF735D" d="M320.487 386.875C320.849 386.731 321.21 386.587 321.571 386.443C321.788 386.299 321.933 386.371 322.005 386.659C322.222 387.235 322.439 387.739 322.656 388.242C323.017 389.034 322.656 389.898 321.861 390.258C321.066 390.546 320.198 390.258 319.837 389.394C319.62 388.89 319.403 388.314 319.187 387.811C319.042 387.595 319.114 387.451 319.331 387.307C319.765 387.163 320.126 387.019 320.487 386.875Z"/><path fill="#1A2E35" d="M311.236 366.794C312.899 370.681 314.561 374.639 316.295 378.526C316.801 379.678 316.512 380.397 315.356 380.901C307.478 384.212 299.673 387.595 291.795 390.906C290.711 391.41 289.916 391.05 289.483 389.97C286.158 382.125 282.761 374.351 279.437 366.506C278.931 365.427 279.292 364.635 280.376 364.203C288.254 360.82 296.132 357.509 304.009 354.127C305.093 353.695 305.816 353.983 306.322 355.062C307.912 358.949 309.574 362.836 311.236 366.794Z"/><path fill="#1A2E35" d="M308.49 367.946C309.936 371.328 311.381 374.711 312.899 378.166C313.043 378.526 312.971 378.598 312.682 378.742C305.816 381.621 299.023 384.572 292.229 387.451C291.868 387.595 291.796 387.523 291.651 387.235C288.76 380.397 285.797 373.632 282.906 366.866C282.762 366.506 282.834 366.434 283.123 366.29C289.989 363.411 296.782 360.46 303.576 357.581C303.937 357.437 304.01 357.509 304.154 357.797C305.6 361.18 307.045 364.563 308.49 367.946Z"/><path fill="#FF735D" d="M303.647 376.51C303.937 377.23 303.72 377.95 303.142 378.382C302.563 378.813 301.841 378.742 301.262 378.238C300.829 377.806 300.395 377.374 299.962 376.87C299.817 376.654 299.6 376.654 299.383 376.726C298.01 377.302 296.637 377.95 295.192 378.526C294.975 378.598 294.903 378.742 294.903 379.029C294.975 379.605 294.975 380.109 294.975 380.685C294.975 381.621 294.397 382.34 293.529 382.34C292.662 382.412 291.939 381.764 291.939 380.757C291.795 376.582 291.578 372.408 291.434 368.305C291.434 367.441 291.795 366.794 292.518 366.506C293.24 366.218 293.963 366.362 294.541 366.938C297.432 369.961 300.323 372.912 303.214 375.935C303.431 376.15 303.575 376.366 303.647 376.51Z"/><path fill="#FF735D" d="M303.141 370.177C302.346 368.377 301.623 366.578 300.828 364.778C300.395 363.699 301.045 362.619 302.129 362.619C302.707 362.619 303.141 362.835 303.502 363.339C303.574 363.483 303.647 363.699 303.719 363.843C305.237 367.297 306.682 370.824 308.2 374.279C308.344 374.567 308.417 374.783 308.417 375.071C308.489 375.719 308.055 376.366 307.405 376.582C306.754 376.798 306.032 376.51 305.67 375.935C305.598 375.791 305.454 375.575 305.381 375.431C304.659 373.703 303.864 371.904 303.141 370.177Z"/><path fill="#1A2E35" d="M294.613 371.4C295.553 372.408 296.42 373.271 297.287 374.135C297.432 374.279 297.36 374.351 297.215 374.423C296.492 374.711 295.77 375.071 294.975 375.359C294.83 375.431 294.758 375.359 294.758 375.215C294.758 373.991 294.686 372.767 294.613 371.4Z"/></g><g opacity=".5"><path fill="#FF735D" d="M773.418 172.678C773.418 173.038 773.563 173.325 773.635 173.613C774.502 177.212 772.912 180.883 769.66 182.682C764.023 185.777 758.386 188.8 752.749 191.895C752.532 192.039 752.315 192.111 752.17 192.255C751.52 192.831 751.448 193.766 751.881 194.414C752.387 195.134 753.255 195.35 754.049 194.918C757.085 193.263 760.048 191.607 763.083 190.024C763.517 189.808 764.023 189.232 764.457 189.376C764.818 189.52 764.962 190.168 765.252 190.599C765.974 191.967 766.914 193.263 767.347 194.774C768.359 198.301 766.769 202.187 763.589 203.987C761.277 205.282 758.964 206.506 756.651 207.73C752.821 209.745 747.906 208.305 745.811 204.563C743.353 200.1 740.896 195.638 738.439 191.175C737.644 189.736 738.15 188.152 739.595 187.433C744.871 184.554 750.219 181.675 755.495 178.796C758.097 177.356 759.253 174.693 758.53 171.886C758.386 171.382 758.169 170.878 757.88 170.374C756.796 168.359 755.712 166.344 754.555 164.329C754.411 164.041 754.339 163.897 754.7 163.753C756.218 162.961 757.663 162.025 759.253 161.378C762.65 160.082 766.408 161.162 768.648 164.113C768.721 164.185 768.721 164.257 768.793 164.185C770.383 167.064 771.901 169.871 773.418 172.678Z"/><path fill="#FF735D" d="M737.641 155.115C738.292 154.972 738.87 154.756 739.593 154.684C742.917 154.252 746.169 155.835 747.832 158.714C750.289 163.177 752.746 167.639 755.131 172.102C755.926 173.541 755.42 175.125 753.975 175.916C748.699 178.795 743.351 181.674 738.075 184.553C735.545 185.921 734.317 188.656 735.039 191.391C735.184 191.895 735.401 192.399 735.69 192.902C736.774 194.918 737.858 196.933 739.014 198.948C739.159 199.236 739.159 199.38 738.87 199.596C737.352 200.388 735.907 201.323 734.245 201.971C730.703 203.339 726.367 201.827 724.488 198.588C723.115 196.213 721.742 193.766 720.513 191.319C718.562 187.576 720.079 182.826 723.765 180.739C729.402 177.644 735.112 174.549 740.749 171.526C741.905 170.878 742.267 170.014 741.761 169.151C741.255 168.215 740.315 168.071 739.159 168.719C735.907 170.446 732.727 172.245 729.475 173.973C729.113 174.189 728.969 174.189 728.824 173.757C728.101 172.246 727.09 170.878 726.511 169.295C725.211 165.912 726.295 162.169 729.258 159.938C729.33 159.866 729.402 159.866 729.33 159.794C729.402 159.794 729.475 159.722 729.547 159.722C729.764 159.722 729.981 159.578 730.125 159.434C732.438 158.21 734.678 156.987 736.991 155.691C737.208 155.691 737.424 155.547 737.569 155.403C737.497 155.187 737.569 155.187 737.641 155.115Z"/><path fill="#151515" d="M730.052 159.29C729.908 159.506 729.763 159.65 729.475 159.578C729.619 159.506 729.836 159.362 730.052 159.29Z"/><path fill="#151515" d="M737.424 155.259C737.352 155.547 737.136 155.619 736.847 155.547C737.063 155.475 737.28 155.331 737.424 155.259Z"/><path fill="#1A2E35" d="M760.987 199.74C760.192 200.172 759.252 199.884 758.819 199.092C758.385 198.301 758.674 197.293 759.469 196.861C760.264 196.429 761.276 196.717 761.637 197.509C762.071 198.373 761.782 199.38 760.987 199.74Z"/><path fill="#1A2E35" d="M732.511 163.608C733.306 163.176 734.246 163.464 734.679 164.256C735.113 165.048 734.824 166.055 734.029 166.487C733.234 166.919 732.222 166.631 731.861 165.84C731.427 164.976 731.716 164.04 732.511 163.608Z"/></g><g opacity=".5"><path fill="#FF735D" d="M531.881 592.004C532.315 591.716 532.604 591.284 532.965 590.925C536.434 587.398 541.638 586.606 545.974 588.981C557.248 595.099 568.523 601.289 579.797 607.479C585.073 610.358 587.024 616.908 584.133 622.162C583.844 622.666 583.555 623.169 583.338 623.673C583.194 623.961 583.049 624.105 582.688 623.889C582.543 623.817 582.471 623.745 582.326 623.673C564.909 614.173 547.564 604.672 530.146 595.171C530.725 594.092 531.303 593.012 531.881 592.004Z"/><path fill="#FF735D" d="M621.715 580.776C618.318 580.632 614.921 580.56 611.525 580.416C611.163 580.416 611.019 580.272 610.874 579.984C609.573 578.113 608.272 576.313 606.899 574.37C606.466 575.162 606.032 575.954 605.598 576.673C605.454 577.033 605.309 577.105 604.948 576.889C603.141 575.882 601.262 574.874 599.455 573.866C596.492 572.139 595.408 568.396 596.998 565.373C598.371 562.782 599.817 560.191 601.262 557.672C602.78 554.937 605.96 553.785 608.995 554.793C609.067 554.793 609.14 554.793 609.284 554.793C611.452 556.017 613.62 557.168 615.789 558.392C615.861 559.04 615.355 559.471 615.138 559.975C615.066 560.119 614.994 560.335 614.849 560.479C614.56 560.983 614.921 561.055 615.283 561.055C616.728 561.055 618.174 561.271 619.619 561.271C620.269 561.271 620.848 561.343 621.426 561.487C621.498 561.559 621.57 561.559 621.643 561.631C622.149 562.062 622.51 562.638 622.871 563.214C624.317 565.301 625.762 567.317 627.208 569.404C627.424 569.692 627.713 569.98 627.569 570.412C627.135 571.059 626.413 571.347 625.762 571.779C625.401 572.067 625.039 572.283 624.678 572.499C624.1 572.859 623.955 572.859 623.522 572.283C622.221 570.484 620.92 568.612 619.691 566.741C619.258 566.093 618.752 565.805 617.957 565.805C616.294 565.733 614.56 565.733 612.898 565.589C612.247 565.517 611.814 565.733 611.452 566.381C610.946 567.461 610.368 568.468 609.79 569.476C609.501 569.908 609.501 570.34 609.862 570.771C610.946 572.355 612.175 573.866 613.259 575.45C613.548 575.882 613.982 576.026 614.488 576.026C616.656 576.098 618.752 576.17 620.92 576.242C622.221 576.313 622.221 576.313 622.221 577.609C622.221 578.329 622.149 579.049 622.149 579.84C622.004 580.2 622.004 580.56 621.715 580.776Z"/><path fill="#FF735D" d="M579.944 538.886C580.522 539.534 581.317 540.038 581.895 540.758C585.003 544.429 585.292 549.899 582.618 553.713C579.655 557.888 574.524 559.471 569.898 557.672C564.406 555.585 561.515 549.395 563.538 544.069C565.706 538.311 571.777 535.504 577.487 537.663C577.559 537.663 577.631 537.735 577.776 537.663C577.848 537.735 577.92 537.735 577.993 537.807C578.209 538.023 578.426 538.167 578.715 538.239C578.788 538.311 578.86 538.311 578.932 538.383C579.149 538.599 579.366 538.742 579.655 538.814C579.799 538.814 579.872 538.814 579.944 538.886Z"/><path fill="#FF735D" d="M578.642 538.239C578.281 538.311 577.992 538.167 577.92 537.807C578.209 537.951 578.425 538.095 578.642 538.239Z"/><path fill="#FF735D" d="M579.652 538.742C579.291 538.814 579.074 538.67 578.93 538.311C579.146 538.454 579.435 538.598 579.652 538.742Z"/><path fill="#FF735D" d="M577.486 601.217C573.439 599.058 569.464 596.827 565.489 594.667C565.127 594.451 565.127 594.308 565.272 593.948C565.85 593.012 566.356 592.004 566.862 591.069C567.006 590.781 567.079 590.637 566.717 590.421C565.705 589.917 564.694 589.341 563.682 588.765C563.393 588.621 563.248 588.621 563.104 588.909C562.598 589.917 562.02 590.853 561.514 591.86C561.297 592.22 561.152 592.22 560.791 592.076C556.816 589.917 552.841 587.686 548.866 585.527C548.866 585.311 549.083 585.239 549.155 585.167C552.841 582.648 556.455 580.128 560.141 577.609C560.502 577.393 560.719 577.393 561.08 577.537C566.573 580.56 572.065 583.511 577.558 586.534C577.847 586.678 578.064 586.822 578.064 587.182C577.847 591.788 577.703 596.323 577.486 600.929C577.558 601.073 577.486 601.145 577.486 601.217Z"/><path fill="#FF735D" d="M564.984 559.903C568.886 562.638 573.15 563.214 577.703 562.063C577.125 568.324 576.475 574.514 575.896 580.776C575.535 580.56 575.246 580.416 574.957 580.272C571.343 578.257 567.73 576.314 564.116 574.37C563.827 574.226 563.61 574.082 563.61 573.651C564.044 569.188 564.478 564.654 564.984 560.191C564.911 560.119 564.984 560.047 564.984 559.903Z"/><path fill="#FF735D" d="M582.4 559.759C586.231 556.952 588.254 553.209 588.616 548.603C588.905 548.603 589.122 548.747 589.266 548.891C592.085 550.474 594.976 551.986 597.794 553.569C598.228 553.785 598.3 554.001 598.011 554.433C596.132 557.816 594.253 561.199 592.374 564.653C592.229 564.869 592.229 565.301 591.723 565.013C588.688 563.214 585.58 561.559 582.4 559.759Z"/><path fill="#1A2E35" d="M575.536 548.747C575.247 549.251 574.957 549.755 574.741 550.259C574.596 550.547 574.452 550.619 574.162 550.403C573.151 549.827 572.139 549.251 571.055 548.747C570.766 548.603 570.693 548.459 570.91 548.172C571.488 547.164 572.067 546.156 572.573 545.077C572.717 544.789 572.862 544.717 573.151 544.933C574.162 545.508 575.174 546.084 576.258 546.588C576.547 546.732 576.62 546.876 576.403 547.164C576.042 547.668 575.825 548.172 575.536 548.747Z"/></g><path fill="#FF735D" fill-rule="evenodd" d="M357.559 175.772C359.583 176.42 360.595 178.076 360.595 180.091L347.875 226.731C347.225 228.098 345.851 229.034 344.551 229.034H343.539C341.515 228.386 340.503 226.731 340.865 224.715L353.585 178.076C353.874 176.42 355.897 175.413 357.559 175.772ZM369.629 186.713L382.999 200.028C384.372 201.396 384.372 203.339 382.999 204.706L369.629 218.022C368.978 218.67 367.967 219.029 367.316 219.029C366.666 219.029 365.654 218.67 365.003 218.022C363.63 216.654 363.63 214.711 365.003 213.343L376.061 202.331L365.003 191.319C363.63 189.952 363.63 188.008 365.003 186.641C366.232 185.417 368.256 185.417 369.629 186.713ZM336.167 186.713C337.54 188.08 337.54 190.024 336.167 191.391L325.11 202.403L336.167 213.415C337.54 214.783 337.54 216.726 336.167 218.094C335.517 218.742 334.794 219.101 333.854 219.101C332.843 219.101 332.192 218.742 331.542 218.094L318.099 204.706C316.726 203.339 316.726 201.396 318.099 200.028L331.469 186.713C332.77 185.417 334.794 185.417 336.167 186.713Z" clip-rule="evenodd" opacity=".5"/></g><defs><clipPath id="clip0_566_4606"><rect width="1145.1" height="643.754" fill="#fff"/></clipPath></defs></svg>