<svg xmlns="http://www.w3.org/2000/svg" width="245" height="364" fill="none" viewBox="0 0 245 364"><g style="mix-blend-mode:multiply"><path fill="#000025" fill-rule="evenodd" d="M245 294L245 16.6444C212.564 -2.42549 164.233 -14.0337 113.118 32.9904C76.1921 66.9496 35.4022 75.0513 -1.84379e-05 72.7293L-1.28512e-05 294C4.41826 294 7.99999 297.582 7.99999 302C7.99999 306.418 4.41826 310 -1.35505e-05 310L-3.03887e-05 346.132C-3.08201e-05 356 11.2687 364 25.1693 364L219.831 364C233.731 364 245 356 245 346.132L245 310C240.582 310 237 306.418 237 302C237 297.582 240.582 294 245 294Z" clip-rule="evenodd"/></g></svg>