<svg xmlns="http://www.w3.org/2000/svg" width="59" height="19" fill="none" viewBox="0 0 59 19"><g clip-path="url(#clip0_566_3342)"><g filter="url(#filter0_b_566_3342)"><path fill="#fff" fill-opacity=".7" d="M38.4197 0.0292969C34.2347 0.0292969 30.4947 2.18078 30.4947 6.15581C30.4947 10.7144 37.1277 11.0293 37.1277 13.3194C37.1277 14.2837 36.0135 15.1468 34.1106 15.1468C31.41 15.1468 29.3916 13.9407 29.3916 13.9407L28.5279 17.952C28.5279 17.952 30.8531 18.9708 33.9402 18.9708C38.5158 18.9708 42.1162 16.7137 42.1162 12.6707C42.1162 7.85366 35.4556 7.54816 35.4556 5.42255C35.4556 4.66718 36.3702 3.83952 38.2677 3.83952C40.4086 3.83952 42.1553 4.7167 42.1553 4.7167L43.0006 0.842511C43.0006 0.842511 41.1 0.0292969 38.4197 0.0292969ZM0.130633 0.321689L0.0292969 0.906471C0.0292969 0.906471 1.78995 1.22607 3.37571 1.8636C5.4175 2.59465 5.56294 3.02023 5.90682 4.34207L9.65396 18.6693H14.677L22.4155 0.321689H17.4039L12.4315 12.7963L10.4025 2.22223C10.2164 1.01204 9.27384 0.321689 8.1201 0.321689H0.130633ZM24.4307 0.321689L20.4993 18.6693H25.2782L29.1958 0.321689H24.4307ZM51.0845 0.321689C49.9321 0.321689 49.3215 0.933614 48.8735 2.00294L41.8721 18.6693H46.8836L47.8532 15.8915H53.9587L54.5483 18.6693H58.9703L55.1126 0.321689H51.0845ZM51.7363 5.27864L53.2218 12.1635H49.242L51.7363 5.27864Z"/></g></g><defs><filter id="filter0_b_566_3342" width="66.941" height="26.941" x="-3.971" y="-3.971" color-interpolation-filters="sRGB" filterUnits="userSpaceOnUse"><feFlood flood-opacity="0" result="BackgroundImageFix"/><feGaussianBlur in="BackgroundImageFix" stdDeviation="2"/><feComposite in2="SourceAlpha" operator="in" result="effect1_backgroundBlur_566_3342"/><feBlend in="SourceGraphic" in2="effect1_backgroundBlur_566_3342" mode="normal" result="shape"/></filter><clipPath id="clip0_566_3342"><rect width="59" height="19" fill="#fff"/></clipPath></defs></svg>