<svg xmlns="http://www.w3.org/2000/svg" width="1109" height="647" fill="none" viewBox="0 0 1109 647"><path fill="#E1E1E1" d="M375.616 341.954H425.355V335.148H375.616V341.954Z"/><path fill="#E1E1E1" d="M375.616 330.446H425.355V323.641H375.616V330.446Z"/><path fill="#E1E1E1" d="M403.831 354.276H425.353V347.47H403.831V354.276Z"/><g opacity=".3"><g opacity=".3"><path fill="#F28334" d="M766.509 213.42C763.728 182.196 752.847 150.979 731.643 127.878C710.446 104.778 678.104 90.9096 647.171 96.1155C616.238 101.321 588.865 127.747 586.779 159.024C585.67 175.625 591.215 192.111 590.298 208.723C588.704 237.431 568.135 261.73 545.067 278.911C525.189 293.72 503.775 299.028 489.526 319.301C463.976 355.634 468.232 397.51 483.333 422.557C488.525 431.166 497.025 439.253 507.222 446.16C536.501 466.002 573.129 471.118 607.413 462.383C660.629 448.82 708.653 415.278 736.331 371.761C768.481 321.194 771.077 264.707 766.509 213.42Z"/></g><g opacity=".8"><path stroke="#4B4A4F" stroke-miterlimit="10" d="M766.509 213.42C763.728 182.196 752.847 150.979 731.643 127.878C710.446 104.778 678.104 90.9096 647.171 96.1155C616.238 101.321 588.865 127.747 586.779 159.024C585.67 175.625 591.215 192.111 590.298 208.723C588.704 237.431 568.135 261.73 545.067 278.911C525.189 293.72 503.775 299.028 489.526 319.301C463.976 355.634 468.232 397.51 483.333 422.557C488.525 431.166 497.025 439.253 507.222 446.16C536.501 466.002 573.129 471.118 607.413 462.383C660.629 448.82 708.653 415.278 736.331 371.761C768.481 321.194 771.077 264.707 766.509 213.42Z"/></g><path fill="#F18234" d="M542.634 436.048C543.852 436.048 544.84 435.061 544.84 433.843C544.84 432.626 543.852 431.639 542.634 431.639C541.415 431.639 540.427 432.626 540.427 433.843C540.427 435.061 541.415 436.048 542.634 436.048Z"/><path fill="#E8505B" d="M577.703 472.849C578.349 472.849 578.872 472.326 578.872 471.681C578.872 471.036 578.349 470.513 577.703 470.513C577.058 470.513 576.534 471.036 576.534 471.681C576.534 472.326 577.058 472.849 577.703 472.849Z"/><path fill="#E8505B" d="M654.431 478.463C646.493 481.716 637.405 493.092 636.764 502.036C636.122 510.98 640.852 519.883 648.064 525.208C655.282 530.534 664.676 532.475 673.596 531.511C679.968 530.822 686.437 528.551 690.759 523.819C695.531 518.595 697.042 511.028 696.34 503.983C695.375 494.29 690.291 484.879 682.138 479.547C673.992 474.221 662.793 473.46 654.431 478.463Z"/><g opacity=".8"><path fill="#fff" d="M654.431 478.463C646.493 481.716 637.405 493.092 636.764 502.036C636.122 510.98 640.852 519.883 648.064 525.208C655.282 530.534 664.676 532.475 673.596 531.511C679.968 530.822 686.437 528.551 690.759 523.819C695.531 518.595 697.042 511.028 696.34 503.983C695.375 494.29 690.291 484.879 682.138 479.547C673.992 474.221 662.793 473.46 654.431 478.463Z"/></g><path fill="#F18234" fill-rule="evenodd" d="M716.213 306.666C716.213 308.859 714.432 310.638 712.238 310.638C710.044 310.638 708.264 308.859 708.264 306.666C708.264 304.474 710.044 302.694 712.238 302.694C714.432 302.694 716.213 304.474 716.213 306.666Z" clip-rule="evenodd"/><path fill="#E8505B" d="M652.434 159.707C653.652 159.707 654.64 158.72 654.64 157.502C654.64 156.285 653.652 155.298 652.434 155.298C651.216 155.298 650.228 156.285 650.228 157.502C650.228 158.72 651.216 159.707 652.434 159.707Z"/></g><path fill="#FAFAFA" d="M855.028 488.012C855.028 495.147 749.322 500.928 618.929 500.928C488.537 500.928 382.831 495.147 382.831 488.012C382.831 480.883 488.537 475.096 618.929 475.096C749.322 475.102 855.028 480.883 855.028 488.012Z"/><path fill="#1A2E35" d="M260.926 600.254L314.855 489.096H909.725L980.613 599.979C980.619 599.979 260.926 607.461 260.926 600.254Z"/><path fill="#375A64" d="M630.397 602.076C629.9 602.076 629.504 580.497 629.504 553.892C629.504 527.275 629.906 505.703 630.397 505.703C630.889 505.703 631.291 527.275 631.291 553.892C631.297 580.497 630.895 602.076 630.397 602.076Z"/><path fill="#375A64" d="M932.715 532.835C932.721 532.889 931.941 533.008 930.443 533.194C928.8 533.38 926.612 533.631 923.848 533.943C917.931 534.548 909.587 535.399 899.192 536.459C878.006 538.478 848.5 541.294 814.527 544.529L815.181 544.121C809.528 553.239 803.581 562.83 797.466 572.697L797.208 573.11L796.723 573.122C794.517 573.17 792.143 573.218 789.757 573.266C745.815 574.075 706.045 574.806 677.073 575.339C662.769 575.519 651.145 575.662 642.92 575.764C639.006 575.776 635.906 575.782 633.634 575.788C632.663 575.77 631.872 575.758 631.218 575.752C630.673 575.734 630.397 575.71 630.391 575.68C630.385 575.65 630.667 575.615 631.212 575.573C631.86 575.537 632.657 575.489 633.622 575.435C635.894 575.345 638.988 575.225 642.902 575.075C651.121 574.836 662.745 574.5 677.043 574.081C706.009 573.416 745.779 572.493 789.715 571.481C792.101 571.433 794.475 571.385 796.681 571.337L795.937 571.757C802.07 561.902 808.029 552.323 813.7 543.211L813.928 542.845L814.353 542.809C848.35 539.82 877.868 537.226 899.072 535.363C909.485 534.518 917.847 533.835 923.776 533.356C926.552 533.164 928.752 533.008 930.401 532.895C931.917 532.805 932.709 532.781 932.715 532.835Z"/><path fill="#375A64" d="M878.953 537.759C878.462 537.837 876.645 528.755 874.889 517.474C873.132 506.194 872.107 496.986 872.593 496.914C873.079 496.836 874.901 505.918 876.657 517.199C878.42 528.479 879.445 537.681 878.953 537.759Z"/><path fill="#375A64" d="M402.098 603.387C402.02 603.405 401.702 602.788 401.162 601.608C400.569 600.242 399.826 598.541 398.926 596.474C397.002 591.795 394.412 585.487 391.325 577.981L391.966 578.388C380.175 577.501 366.195 576.453 351.184 575.333C330.442 573.721 311.678 572.182 298.106 571.001C291.548 570.402 286.134 569.905 282.04 569.534C278.251 569.156 276.159 568.899 276.171 568.809C276.183 568.713 278.299 568.785 282.106 569C286.212 569.264 291.65 569.612 298.226 570.031C311.834 570.959 330.616 572.343 351.358 573.955C366.357 575.165 380.33 576.285 392.11 577.238L392.614 577.28L392.752 577.651C395.593 585.217 397.973 591.574 399.748 596.288C400.485 598.391 401.096 600.122 401.588 601.512C402.002 602.716 402.175 603.369 402.098 603.387Z"/><path fill="#375A64" d="M630.397 532.834C630.397 532.864 630.157 532.888 629.696 532.918C629.138 532.942 628.461 532.966 627.633 532.996C625.679 533.032 623.023 533.086 619.666 533.146C612.574 533.212 602.533 533.302 590.064 533.41C564.766 533.487 529.667 533.589 489.783 533.715L490.095 533.661C481.331 536.956 472.194 540.389 462.873 543.893C457.813 545.792 452.813 547.668 448.107 549.429L447.904 549.507L447.688 549.483C404.849 544.187 366.71 539.466 339.11 536.051C325.496 534.29 314.489 532.864 306.726 531.858C303.033 531.343 300.12 530.935 297.986 530.642C297.075 530.498 296.331 530.378 295.726 530.282C295.216 530.193 294.958 530.133 294.964 530.103C294.97 530.073 295.234 530.079 295.75 530.109C296.367 530.163 297.117 530.223 298.034 530.3C300.18 530.522 303.105 530.822 306.816 531.205C314.597 532.08 325.622 533.32 339.266 534.853C366.884 538.124 405.047 542.641 447.91 547.709L447.49 547.757C452.196 545.99 457.196 544.109 462.249 542.21C471.577 538.711 480.719 535.285 489.483 532.002L489.633 531.948H489.795C529.679 532.068 564.772 532.176 590.076 532.253C602.545 532.367 612.592 532.457 619.678 532.517C623.035 532.583 625.691 532.631 627.645 532.667C628.473 532.697 629.15 532.727 629.708 532.745C630.163 532.781 630.397 532.805 630.397 532.834Z"/><path fill="#F28334" d="M785.237 251.456H735.498V258.261H785.237V251.456Z"/><path fill="#F28334" d="M757.019 263.778H735.498V270.584H757.019V263.778Z"/><path fill="#F5F5F5" d="M285.517 221.819C289.581 219.363 293.916 217.5 298.382 216.23L301.031 203.505L322.541 203.128L325.634 215.75C330.142 216.859 334.536 218.572 338.685 220.884L349.559 213.761L365.038 228.696L358.3 239.803C360.757 243.871 362.622 248.196 363.887 252.659L376.62 255.307L376.997 276.802L364.366 279.899C363.257 284.404 361.543 288.796 359.229 292.941L366.357 303.808L351.412 319.276L340.297 312.543C336.227 314.999 331.898 316.862 327.432 318.126L324.783 330.851L303.273 331.228L300.174 318.605C295.666 317.497 291.272 315.784 287.123 313.471L276.249 320.594L260.77 305.659L267.508 294.553C265.051 290.485 263.186 286.16 261.915 281.696L249.182 279.049L248.805 257.554L261.436 254.457C262.545 249.952 264.259 245.56 266.573 241.415L259.445 230.548L274.39 215.079L285.517 221.819ZM296.985 250.455C288.131 259.621 288.388 274.22 297.56 283.068C306.732 291.917 321.342 291.659 330.196 282.493C339.05 273.327 338.793 258.728 329.62 249.88C320.448 241.037 305.839 241.289 296.985 250.455Z"/><path fill="#ECECEC" d="M901.542 312.297C904.965 311.111 908.49 310.41 912.02 310.177L916.019 301.113L932.115 304.252L932.415 314.155C935.598 315.7 938.601 317.671 941.329 320.056L950.567 316.473L959.727 330.066L952.941 337.279C954.128 340.7 954.829 344.222 955.063 347.751L964.133 351.747L960.992 367.832L951.082 368.131C949.536 371.312 947.564 374.314 945.178 377.039L948.762 386.271L935.16 395.425L927.949 388.637C924.526 389.824 921.001 390.525 917.47 390.758L913.465 399.822L897.369 396.683L897.069 386.78C893.886 385.235 890.883 383.264 888.155 380.88L878.917 384.462L869.757 370.869L876.549 363.662C875.362 360.241 874.661 356.719 874.427 353.19L865.357 349.194L868.498 333.109L878.408 332.81C879.954 329.629 881.927 326.627 884.312 323.902L880.728 314.67L894.33 305.516L901.542 312.297ZM905.528 335.47C897.465 340.897 895.337 351.818 900.762 359.876C906.193 367.928 917.128 370.06 925.185 364.639C933.242 359.211 935.376 348.29 929.951 340.232C924.526 332.175 913.591 330.048 905.528 335.47Z"/><path fill="#F5F5F5" d="M830.078 98.2841C826.289 88.3694 820.546 79.3953 813.07 71.7751C800.194 58.6434 785.542 47.0214 768.955 38.874C752.367 30.7265 725.313 23.4897 705.614 23.5976C695.441 23.2082 690.303 23.8432 681.047 27.4137C675.262 29.6422 670.412 34.7943 670.011 40.8988C669.639 46.5481 673.128 53.4914 677.804 56.7803C697.863 70.9124 713.059 71.6493 732.512 77.8737C751.966 84.0981 771.988 93.3118 782.485 110.607C788.18 119.995 791.423 132.006 801.309 136.984C810.882 141.813 823.519 137.122 829.394 128.244C835.269 119.366 833.866 108.199 830.078 98.2841Z"/><path fill="#ECECEC" d="M910.42 213.037L894.803 270.428L847.385 283.53C845.856 283.955 844.909 285.626 845.227 287.358L897.106 274.022L898.934 273.453L960.429 256.997L967.251 229.775L976.123 197.862C976.776 195.921 975.17 193.932 973.353 194.429L912.056 211.251C911.259 211.473 910.636 212.15 910.42 213.037Z"/><path fill="#FAFAFA" d="M913.615 214.882L899.407 267.151L955.123 251.868L967.592 200.354L913.615 214.882Z"/><path fill="#E1E1E1" d="M973.359 194.429C973.371 194.429 973.353 194.537 973.311 194.735C973.257 194.968 973.197 195.256 973.113 195.615C972.916 196.43 972.646 197.562 972.304 198.994C971.561 201.978 970.5 206.225 969.187 211.503C966.477 222.148 962.719 236.904 958.474 253.582L958.426 253.762L958.246 253.809C955.387 254.576 952.384 255.385 949.326 256.212C930.592 261.208 913.639 265.731 901.308 269.02C895.193 270.619 890.224 271.919 886.741 272.83C885.05 273.255 883.725 273.591 882.772 273.836C882.346 273.938 882.005 274.016 881.735 274.082C881.501 274.136 881.381 274.154 881.375 274.142C881.375 274.13 881.489 274.088 881.717 274.016C881.981 273.938 882.316 273.836 882.736 273.711C883.683 273.441 885.002 273.064 886.675 272.59C890.152 271.632 895.097 270.266 901.188 268.583C913.501 265.246 930.443 260.663 949.152 255.595C952.21 254.774 955.219 253.965 958.073 253.198L957.845 253.426C962.173 236.772 966.004 222.029 968.767 211.401C970.164 206.147 971.285 201.912 972.07 198.946C972.46 197.52 972.772 196.4 972.994 195.591C973.096 195.238 973.179 194.956 973.245 194.729C973.311 194.525 973.347 194.429 973.359 194.429Z"/><path fill="#E1E1E1" d="M391.295 121.6L390.648 123.338C390.246 124.422 390.324 125.62 390.857 126.644L426.155 194.154C426.682 195.161 427.606 195.903 428.709 196.203L430.711 196.742C431.16 196.862 431.628 196.904 432.096 196.868L473.31 193.633C475.348 193.471 476.949 191.836 477.063 189.799C477.105 189.05 476.943 188.307 476.583 187.642L439.211 117.91C438.444 116.484 436.909 115.645 435.297 115.771L394.802 118.952C393.213 119.078 391.847 120.114 391.295 121.6Z"/><path fill="#FAFAFA" d="M393.879 120.636L431.328 190.601L473.76 187.271L436.598 117.281L393.879 120.636Z"/><path fill="#E1E1E1" d="M435.644 173.72C438.84 172.354 442.538 173.839 443.905 177.032C445.272 180.226 443.785 183.922 440.59 185.288C437.395 186.654 433.696 185.168 432.329 181.975C430.962 178.782 432.449 175.085 435.644 173.72Z"/><path fill="#fff" d="M438.186 176.565L438.013 177.704C437.989 177.841 438.067 177.979 438.204 178.033L438.42 178.117C438.42 178.117 438.804 178.219 438.69 178.572C438.606 178.824 437.965 180.387 437.965 180.387C437.965 180.387 437.809 180.801 437.485 180.663L437.173 180.537C437.065 180.495 436.945 180.525 436.874 180.615L436.076 181.61C435.992 181.717 435.998 181.867 436.1 181.963L436.388 182.245C436.442 182.299 436.502 182.334 436.574 182.364C436.712 182.412 436.945 182.442 437.173 182.382C437.551 182.275 438.654 181.49 439.361 179.441C440.039 177.488 439.397 176.745 439.247 176.559C439.158 176.446 438.87 176.302 438.726 176.308C438.672 176.308 438.582 176.308 438.492 176.314C438.33 176.302 438.204 176.416 438.186 176.565Z"/><path fill="#E1E1E1" d="M452.118 181.729C449.475 179.471 449.163 175.505 451.423 172.863C453.683 170.221 457.652 169.91 460.295 172.168C462.939 174.427 463.251 178.393 460.991 181.035C458.737 183.676 454.762 183.988 452.118 181.729Z"/><path fill="#fff" d="M453.539 178.195L454.636 177.841C454.774 177.799 454.858 177.668 454.846 177.524L454.828 177.29C454.828 177.29 454.75 176.901 455.116 176.847C455.379 176.811 457.064 176.691 457.064 176.691C457.064 176.691 457.508 176.649 457.526 176.997L457.549 177.332C457.561 177.446 457.639 177.542 457.753 177.566L458.994 177.835C459.126 177.865 459.258 177.787 459.3 177.662L459.426 177.278C459.45 177.206 459.456 177.134 459.45 177.056C459.432 176.913 459.354 176.685 459.198 176.511C458.934 176.224 457.741 175.583 455.589 175.858C453.539 176.122 453.155 177.021 453.053 177.242C452.987 177.38 452.993 177.691 453.059 177.823C453.083 177.871 453.125 177.949 453.167 178.033C453.239 178.177 453.395 178.243 453.539 178.195Z"/><path fill="#ECECEC" d="M433.996 146.773C435.585 145.659 436.058 143.431 434.979 141.04C433.559 137.913 430.016 135.714 427.066 136.134C424.117 136.553 422.882 139.429 424.309 142.556C425.406 144.964 427.762 146.809 430.13 147.342C422.516 149.775 426.982 158.599 426.982 158.599L447.856 156.958C447.856 156.952 442.671 146.803 433.996 146.773Z"/><path fill="#ECECEC" d="M458.64 164.044C458.664 164.374 451.153 165.231 441.855 165.961C432.557 166.692 425.004 167.016 424.974 166.692C424.95 166.363 432.461 165.506 441.759 164.775C451.057 164.044 458.61 163.715 458.64 164.044Z"/><path fill="#ECECEC" d="M415.13 548.896L416.497 551.166C418.032 553.712 420.262 555.767 422.929 557.085L425.303 558.259L423.031 559.625C420.484 561.159 418.427 563.387 417.103 566.053L415.928 568.425L414.561 566.155C413.026 563.609 410.796 561.554 408.128 560.236L405.754 559.062L408.026 557.696C410.574 556.162 412.63 553.934 413.949 551.268L415.13 548.896Z"/><path fill="#ECECEC" d="M855.172 102.861L856.539 105.131C858.073 107.677 860.303 109.732 862.971 111.05L865.345 112.224L863.073 113.59C860.525 115.124 858.469 117.352 857.144 120.018L855.969 122.391L854.602 120.12C853.068 117.574 850.838 115.519 848.17 114.201L845.796 113.027L848.068 111.661C850.616 110.128 852.672 107.899 853.991 105.233L855.172 102.861Z"/><path fill="#ECECEC" d="M870.807 138.086L871.993 140.057C873.324 142.274 875.267 144.059 877.587 145.203L879.655 146.222L877.683 147.408C875.464 148.738 873.678 150.679 872.533 152.997L871.514 155.064L870.327 153.093C868.996 150.877 867.054 149.091 864.734 147.947L862.666 146.929L864.638 145.743C866.856 144.413 868.642 142.472 869.787 140.153L870.807 138.086Z"/><path fill="#ECECEC" d="M388.759 523.25L389.724 524.855C390.809 526.658 392.392 528.114 394.274 529.043L395.953 529.875L394.346 530.84C392.542 531.924 391.085 533.506 390.156 535.387L389.323 537.064L388.358 535.459C387.272 533.655 385.69 532.2 383.807 531.271L382.129 530.438L383.736 529.474C385.54 528.39 386.997 526.808 387.926 524.927L388.759 523.25Z"/><path fill="#ECECEC" d="M801.459 540.856L802.424 542.461C803.509 544.265 805.091 545.72 806.974 546.649L808.652 547.482L807.046 548.446C805.241 549.531 803.785 551.112 802.855 552.993L802.022 554.671L801.057 553.065C799.972 551.262 798.389 549.806 796.507 548.878L794.828 548.045L796.435 547.08C798.239 545.996 799.696 544.414 800.625 542.533L801.459 540.856Z"/><path fill="#ECECEC" d="M376.716 81.1987L377.681 82.8043C378.766 84.6075 380.349 86.0632 382.231 86.9918L383.909 87.8245L382.303 88.789C380.498 89.8733 379.042 91.4549 378.112 93.336L377.279 95.0134L376.314 93.4079C375.229 91.6046 373.646 90.1489 371.764 89.2203L370.085 88.3876L371.692 87.4231C373.496 86.3388 374.953 84.7572 375.882 82.8761L376.716 81.1987Z"/><path fill="#ECECEC" d="M856.251 374.661L857.216 376.267C858.301 378.07 859.884 379.526 861.766 380.454L863.445 381.287L861.838 382.251C860.034 383.336 858.577 384.917 857.648 386.798L856.814 388.476L855.849 386.87C854.764 385.067 853.182 383.611 851.299 382.683L849.621 381.85L851.227 380.885C853.032 379.801 854.488 378.22 855.418 376.339L856.251 374.661Z"/><path fill="#ECECEC" d="M372.609 197.047L373.574 198.653C374.659 200.456 376.242 201.912 378.124 202.84L379.803 203.673L378.196 204.638C376.392 205.722 374.935 207.303 374.006 209.185L373.173 210.862L372.208 209.256C371.123 207.453 369.54 205.998 367.658 205.069L365.979 204.236L367.586 203.272C369.39 202.187 370.847 200.606 371.776 198.725L372.609 197.047Z"/><path fill="#F18234" d="M438.408 217.536L439.307 219.028C440.314 220.705 441.789 222.059 443.545 222.928L445.11 223.701L443.617 224.599C441.939 225.606 440.584 227.079 439.715 228.835L438.941 230.398L438.042 228.907C437.035 227.229 435.56 225.875 433.804 225.007L432.239 224.234L433.732 223.335C435.41 222.329 436.765 220.855 437.635 219.1L438.408 217.536Z"/><path fill="#F18234" d="M762.229 381.718L763.128 383.21C764.135 384.887 765.61 386.241 767.366 387.11L768.931 387.883L767.438 388.781C765.76 389.788 764.405 391.262 763.536 393.017L762.762 394.58L761.863 393.089C760.856 391.411 759.381 390.057 757.625 389.189L756.06 388.416L757.553 387.517C759.231 386.511 760.586 385.037 761.455 383.282L762.229 381.718Z"/><path fill="#F28334" d="M586.342 73.3989L587.241 74.8906C588.248 76.568 589.723 77.9219 591.479 78.7906L593.044 79.5634L591.551 80.462C589.872 81.4685 588.518 82.9422 587.648 84.6975L586.875 86.2611L585.976 84.7694C584.969 83.0919 583.494 81.738 581.738 80.8694L580.173 80.0966L581.666 79.198C583.344 78.1915 584.699 76.7178 585.568 74.9625L586.342 73.3989Z"/><path fill="#F28334" d="M796.903 214.271L797.802 215.763C798.809 217.44 800.284 218.794 802.04 219.663L803.605 220.435L802.112 221.334C800.433 222.341 799.079 223.814 798.209 225.57L797.436 227.133L796.537 225.641C795.53 223.964 794.055 222.61 792.299 221.741L790.734 220.969L792.227 220.07C793.905 219.064 795.26 217.59 796.129 215.835L796.903 214.271Z"/><path fill="#F28334" d="M472.518 275.137L473.178 276.228C473.915 277.45 474.988 278.438 476.271 279.073L477.41 279.636L476.319 280.295C475.096 281.032 474.107 282.104 473.472 283.386L472.908 284.525L472.249 283.434C471.511 282.212 470.438 281.224 469.155 280.589L468.016 280.026L469.107 279.367C470.33 278.63 471.319 277.557 471.955 276.275L472.518 275.137Z"/><path fill="#F18234" d="M502.36 414.853L503.02 415.943C503.757 417.165 504.83 418.154 506.113 418.789L507.252 419.352L506.161 420.011C504.938 420.748 503.949 421.82 503.314 423.102L502.75 424.241L502.091 423.15C501.353 421.928 500.28 420.94 498.997 420.305L497.858 419.741L498.949 419.082C500.172 418.346 501.162 417.273 501.797 415.991L502.36 414.853Z"/><path fill="#F28334" d="M787.119 171.964L787.778 173.055C788.516 174.277 789.589 175.265 790.872 175.9L792.011 176.463L790.92 177.122C789.697 177.859 788.708 178.932 788.072 180.214L787.509 181.352L786.849 180.262C786.112 179.039 785.039 178.051 783.756 177.416L782.617 176.853L783.708 176.194C784.931 175.457 785.92 174.385 786.555 173.103L787.119 171.964Z"/><path fill="#F28334" d="M414.105 245.674L414.765 246.765C415.502 247.987 416.575 248.975 417.858 249.61L418.997 250.173L417.906 250.832C416.683 251.569 415.694 252.642 415.058 253.924L414.495 255.062L413.835 253.971C413.098 252.749 412.025 251.761 410.742 251.126L409.603 250.563L410.694 249.904C411.917 249.167 412.906 248.095 413.542 246.813L414.105 245.674Z"/><path fill="#F28334" d="M818.664 178.668L819.041 179.291C819.461 179.992 820.078 180.555 820.81 180.92L821.463 181.244L820.84 181.621C820.138 182.041 819.575 182.658 819.209 183.389L818.886 184.042L818.508 183.419C818.088 182.718 817.471 182.155 816.739 181.789L816.086 181.466L816.709 181.088C817.411 180.669 817.974 180.052 818.34 179.321L818.664 178.668Z"/><path fill="#FF735D" d="M795.338 358.157L795.715 358.78C796.135 359.481 796.753 360.044 797.484 360.409L798.137 360.733L797.514 361.11C796.813 361.53 796.249 362.147 795.883 362.877L795.56 363.53L795.182 362.907C794.762 362.207 794.145 361.643 793.413 361.278L792.76 360.954L793.383 360.577C794.085 360.158 794.648 359.541 795.014 358.81L795.338 358.157Z"/><path fill="#F28334" d="M634.018 59.3745L634.396 59.9975C634.815 60.6985 635.433 61.2616 636.164 61.627L636.818 61.9505L636.194 62.3279C635.493 62.7473 634.929 63.3643 634.563 64.0952L634.24 64.7482L633.862 64.1252C633.442 63.4243 632.825 62.8611 632.094 62.4957L631.44 62.1722L632.064 61.7948C632.765 61.3754 633.329 60.7584 633.694 60.0275L634.018 59.3745Z"/><path fill="#F28334" d="M562.566 91.2095L562.944 91.8325C563.363 92.5334 563.981 93.0966 564.712 93.462L565.366 93.7855L564.742 94.1629C564.041 94.5823 563.477 95.1993 563.112 95.9302L562.788 96.5832L562.41 95.9601C561.991 95.2592 561.373 94.6961 560.642 94.3307L559.988 94.0071L560.612 93.6297C561.313 93.2104 561.877 92.5933 562.242 91.8625L562.566 91.2095Z"/><path fill="#FF735D" d="M510.346 431.244L510.723 431.867C511.143 432.568 511.76 433.131 512.492 433.496L513.145 433.82L512.522 434.197C511.82 434.616 511.257 435.233 510.891 435.964L510.567 436.617L510.19 435.994C509.77 435.293 509.153 434.73 508.421 434.365L507.768 434.041L508.391 433.664C509.093 433.245 509.656 432.628 510.022 431.897L510.346 431.244Z"/><path fill="#E57B33" d="M686.323 184C677.792 179.117 668.872 174.666 659.268 172.545C657.925 172.246 656.535 171.994 655.174 172.204C653.813 172.413 652.458 173.156 651.865 174.402C651.043 176.11 651.835 178.147 652.884 179.722C655.192 183.203 658.651 185.743 662.128 188.049C671.659 194.369 681.911 199.516 692.132 204.65C690.831 197.371 688.283 191.117 686.323 184Z"/><path fill="#E57B33" d="M751.744 202.787C754.531 212.21 757.895 221.586 763.362 229.757C764.129 230.901 764.956 232.045 766.083 232.836C767.21 233.627 768.703 234.022 769.992 233.537C771.766 232.872 772.606 230.853 772.941 228.99C773.685 224.88 772.941 220.657 772.024 216.583C769.506 205.434 765.664 194.633 761.833 183.862C757.739 190.008 755.251 196.287 751.744 202.787Z"/><path fill="#F28334" d="M686.191 183.802C686.191 183.802 686.862 249.065 723.514 250.347C760.167 251.623 761.701 184.269 761.701 183.802C761.701 183.802 757.373 174.067 723.946 174.45C690.519 174.834 686.191 183.802 686.191 183.802Z"/><path fill="#1A2E35" d="M734.881 209.724C734.371 216.679 728.316 221.909 721.356 221.4C714.396 220.891 709.163 214.84 709.672 207.885C710.182 200.93 716.237 195.7 723.197 196.209C730.157 196.718 735.39 202.769 734.881 209.724Z"/><path fill="#fff" d="M731.458 209.472C731.086 214.541 726.674 218.351 721.602 217.979C716.531 217.608 712.718 213.199 713.089 208.13C713.461 203.062 717.873 199.252 722.945 199.624C728.017 199.995 731.829 204.404 731.458 209.472Z"/><path fill="#FF735D" d="M727.021 211.15C726.985 211.126 726.961 210.581 726.937 209.634C726.913 208.682 726.895 207.328 726.895 205.669L726.997 205.848C725.619 205.045 724.012 204.111 722.261 203.087L722.525 203.093C721.039 203.925 719.426 204.83 717.747 205.776C717.616 205.992 717.921 205.483 717.891 205.537V205.543V205.555V205.579V205.627V205.716V205.896L717.885 206.256L717.873 206.969C717.867 207.442 717.855 207.903 717.849 208.364C717.831 209.281 717.813 210.168 717.801 211.024L717.669 210.791C719.402 211.845 720.979 212.81 722.351 213.648L722.142 213.642C723.604 212.857 724.803 212.228 725.655 211.797C726.488 211.36 726.985 211.126 727.021 211.15C727.057 211.168 726.632 211.45 725.822 211.941C725.013 212.432 723.826 213.139 722.333 214.002L722.231 214.062L722.124 214.002C720.739 213.193 719.138 212.264 717.388 211.24L717.256 211.162V211.006C717.262 210.15 717.274 209.263 717.28 208.346C717.286 207.885 717.292 207.424 717.298 206.951L717.31 206.238L717.316 205.878V205.698V205.609V205.561V205.537V205.525V205.519C717.286 205.573 717.592 205.063 717.46 205.279C719.15 204.345 720.763 203.446 722.255 202.625L722.393 202.547L722.525 202.625C724.258 203.68 725.84 204.65 727.207 205.483L727.315 205.549L727.309 205.669C727.255 207.394 727.201 208.778 727.147 209.718C727.099 210.665 727.051 211.168 727.021 211.15Z"/><path fill="#1A2E35" d="M686.041 183.748C686.041 183.742 686.107 183.76 686.233 183.802C686.371 183.85 686.551 183.91 686.79 183.988C687.288 184.162 688.001 184.413 688.913 184.737C689.374 184.898 689.884 185.084 690.447 185.282C691.011 185.468 691.634 185.647 692.294 185.851C693.624 186.246 695.123 186.756 696.826 187.157C697.671 187.373 698.558 187.6 699.481 187.84C700.405 188.074 701.382 188.247 702.389 188.463C704.391 188.924 706.567 189.236 708.845 189.607C713.419 190.23 718.491 190.656 723.82 190.679C729.156 190.656 734.227 190.23 738.801 189.613C741.079 189.242 743.255 188.93 745.258 188.475C746.259 188.259 747.242 188.085 748.165 187.852C749.088 187.618 749.976 187.391 750.821 187.169C752.523 186.768 754.022 186.258 755.353 185.863C756.018 185.659 756.636 185.48 757.199 185.294C757.757 185.096 758.272 184.91 758.734 184.749C759.645 184.425 760.358 184.18 760.856 184C761.09 183.922 761.276 183.856 761.414 183.814C761.539 183.772 761.605 183.754 761.605 183.76C761.605 183.766 761.545 183.79 761.426 183.838C761.294 183.892 761.108 183.958 760.88 184.048C760.382 184.233 759.675 184.503 758.77 184.844C758.308 185.018 757.799 185.204 757.241 185.414C756.678 185.611 756.06 185.791 755.395 186.007C754.064 186.414 752.571 186.941 750.869 187.349C750.023 187.57 749.136 187.804 748.213 188.05C747.29 188.289 746.307 188.469 745.306 188.691C743.297 189.158 741.121 189.481 738.837 189.859C734.251 190.494 729.168 190.925 723.82 190.949C718.473 190.925 713.395 190.494 708.809 189.853C706.525 189.475 704.349 189.158 702.341 188.685C701.334 188.463 700.357 188.283 699.433 188.044C698.51 187.798 697.623 187.57 696.778 187.343C695.075 186.929 693.577 186.408 692.252 185.995C691.592 185.779 690.969 185.599 690.405 185.402C689.848 185.192 689.338 185.006 688.877 184.833C687.971 184.491 687.264 184.227 686.766 184.036C686.539 183.946 686.353 183.874 686.221 183.826C686.101 183.778 686.041 183.748 686.041 183.748Z"/><g opacity=".3"><path fill="#000" d="M686.191 183.802C686.191 183.802 690.519 174.828 723.946 174.45C757.373 174.067 761.701 183.802 761.701 183.802C761.701 183.802 727.987 200.42 686.191 183.802Z"/></g><path fill="#fff" d="M697.689 230.254C697.683 230.254 697.665 230.224 697.623 230.158C697.581 230.08 697.527 229.985 697.461 229.865C697.311 229.583 697.113 229.206 696.856 228.72C696.724 228.469 696.58 228.193 696.424 227.894C696.28 227.582 696.124 227.247 695.956 226.887C695.615 226.168 695.237 225.342 694.865 224.407C694.673 223.94 694.476 223.455 694.266 222.951C694.074 222.436 693.876 221.903 693.672 221.352C693.247 220.25 692.881 219.045 692.455 217.787C691.676 215.253 690.909 212.438 690.237 209.448C689.578 206.459 689.074 203.583 688.679 200.959C688.313 198.335 688.019 195.963 687.863 193.962C687.767 192.962 687.707 192.057 687.66 191.266C687.606 190.47 687.564 189.787 687.552 189.229C687.534 188.684 687.522 188.259 687.51 187.941C687.51 187.81 687.504 187.696 687.504 187.606C687.504 187.528 687.504 187.492 687.51 187.492C687.516 187.492 687.522 187.528 687.528 187.606C687.534 187.696 687.546 187.81 687.558 187.941C687.582 188.259 687.612 188.684 687.648 189.229C687.678 189.787 687.731 190.47 687.803 191.266C687.869 192.057 687.935 192.962 688.049 193.956C688.229 195.951 688.541 198.317 688.918 200.935C689.326 203.553 689.836 206.417 690.495 209.4C691.166 212.378 691.922 215.193 692.689 217.721C693.109 218.974 693.462 220.184 693.882 221.286C694.08 221.837 694.272 222.376 694.458 222.885C694.661 223.395 694.853 223.88 695.039 224.347C695.399 225.282 695.764 226.109 696.094 226.833C696.256 227.199 696.406 227.534 696.544 227.846C696.694 228.151 696.826 228.427 696.951 228.685C697.185 229.176 697.377 229.559 697.515 229.847C697.569 229.967 697.617 230.068 697.653 230.152C697.677 230.212 697.689 230.254 697.689 230.254Z"/><path fill="#fff" d="M715.35 245.944C715.344 245.962 715.14 245.938 714.768 245.872C714.396 245.818 713.857 245.692 713.209 245.495C712.556 245.303 711.801 245.015 710.985 244.644C710.176 244.254 709.313 243.769 708.462 243.182C707.616 242.583 706.867 241.936 706.232 241.307C705.602 240.666 705.075 240.055 704.679 239.504C704.277 238.959 703.977 238.497 703.798 238.168C703.612 237.838 703.516 237.653 703.534 237.641C703.576 237.617 703.995 238.342 704.823 239.39C705.236 239.917 705.77 240.51 706.399 241.133C707.041 241.744 707.778 242.373 708.611 242.966C709.451 243.548 710.296 244.033 711.087 244.428C711.885 244.812 712.622 245.111 713.263 245.321C714.534 245.752 715.356 245.896 715.35 245.944Z"/><path fill="#fff" d="M722.987 222.921C722.987 222.927 722.867 222.939 722.639 222.957C722.412 222.963 722.07 223.011 721.632 222.987C720.757 222.987 719.486 222.844 717.981 222.394C717.226 222.173 716.429 221.843 715.601 221.436C714.792 220.998 713.935 220.495 713.126 219.842C711.495 218.56 709.984 216.763 709.007 214.564C708.066 212.348 707.784 210.017 707.958 207.951C708.03 206.914 708.246 205.944 708.48 205.057C708.749 204.176 709.049 203.368 709.403 202.667C710.098 201.259 710.866 200.235 711.465 199.594C711.747 199.258 712.011 199.042 712.172 198.881C712.34 198.725 712.43 198.641 712.436 198.653C712.454 198.671 712.106 199.006 711.543 199.665C710.973 200.318 710.242 201.355 709.571 202.751C709.235 203.446 708.941 204.248 708.689 205.117C708.468 205.998 708.264 206.95 708.198 207.975C708.036 210.005 708.324 212.294 709.247 214.469C710.206 216.625 711.681 218.392 713.275 219.668C714.067 220.321 714.9 220.819 715.697 221.262C716.513 221.669 717.292 222.005 718.029 222.233C719.504 222.7 720.763 222.868 721.632 222.898C722.501 222.921 722.987 222.892 722.987 222.921Z"/><path fill="#F28334" d="M721.404 115.945C721.404 115.945 689.452 115.561 684.392 143.221C679.333 170.88 706.357 171.395 714.127 171.916C717.652 172.156 725.193 172.18 731.847 172.06C746.576 171.803 756.983 168.957 760.526 155.298C760.94 153.705 761.216 152.069 761.324 150.41C762.259 135.439 752.122 115.208 721.404 115.945Z"/><path fill="#1A2E35" d="M744.586 158.066L698.163 158.79C693.295 158.868 689.29 154.986 689.212 150.122C689.134 145.257 693.019 141.256 697.887 141.178L744.31 140.453C749.178 140.375 753.183 144.257 753.261 149.121C753.339 153.986 749.454 157.988 744.586 158.066Z"/><path fill="#fff" d="M707.796 149.164C707.496 150.697 706.01 151.692 704.475 151.392C702.94 151.093 701.945 149.607 702.245 148.073C702.545 146.54 704.031 145.545 705.566 145.845C707.101 146.144 708.096 147.63 707.796 149.164Z"/><path fill="#fff" d="M740.228 148.648C739.928 150.182 738.442 151.177 736.907 150.877C735.372 150.577 734.377 149.092 734.677 147.558C734.977 146.025 736.463 145.03 737.998 145.33C739.533 145.629 740.528 147.115 740.228 148.648Z"/><path fill="#fff" d="M715.925 147.857C716.135 147.881 716.033 148.87 716.651 150.182C716.95 150.835 717.448 151.548 718.149 152.153C718.851 152.758 719.786 153.225 720.805 153.333C721.83 153.417 722.831 153.123 723.635 152.656C724.438 152.189 725.055 151.578 725.469 150.991C726.314 149.81 726.392 148.822 726.602 148.834C726.686 148.834 726.77 149.085 726.77 149.553C726.776 150.02 726.638 150.703 726.254 151.464C725.877 152.225 725.217 153.033 724.27 153.668C723.329 154.303 722.058 154.735 720.691 154.627C719.324 154.489 718.155 153.836 717.346 153.039C716.531 152.243 716.027 151.326 715.793 150.511C715.554 149.697 715.548 149.002 715.632 148.54C715.715 148.079 715.847 147.845 715.925 147.857Z"/><path fill="#fff" d="M717.364 118.012C717.364 118.018 717.328 118.024 717.25 118.03C717.16 118.036 717.046 118.048 716.914 118.06C716.62 118.09 716.177 118.102 715.619 118.168C714.492 118.269 712.868 118.491 710.901 118.946C708.935 119.402 706.633 120.139 704.217 121.259C701.795 122.373 699.271 123.907 696.892 125.854C694.524 127.819 692.539 130.011 690.981 132.174C689.422 134.337 688.259 136.451 687.438 138.297C686.616 140.142 686.089 141.693 685.777 142.778C685.603 143.317 685.513 143.748 685.423 144.03C685.388 144.161 685.358 144.269 685.328 144.353C685.304 144.425 685.292 144.461 685.286 144.461C685.28 144.461 685.286 144.419 685.298 144.347C685.316 144.257 685.34 144.149 685.369 144.018C685.441 143.73 685.519 143.293 685.675 142.748C685.963 141.651 686.461 140.082 687.27 138.225C688.073 136.361 689.224 134.223 690.783 132.036C692.341 129.85 694.332 127.639 696.718 125.656C699.116 123.691 701.669 122.157 704.109 121.043C706.555 119.929 708.875 119.204 710.853 118.773C712.838 118.335 714.468 118.144 715.601 118.072C716.165 118.018 716.608 118.024 716.902 118.012C717.04 118.012 717.148 118.006 717.244 118.006C717.322 118.006 717.364 118.006 717.364 118.012Z"/><path fill="#fff" d="M686.095 156.322C686.065 156.334 685.873 155.963 685.639 155.328C685.406 154.693 685.148 153.794 684.992 152.77C684.83 151.752 684.8 150.811 684.83 150.14C684.854 149.463 684.926 149.05 684.956 149.056C685.04 149.062 684.926 150.721 685.25 152.734C685.555 154.747 686.173 156.293 686.095 156.322Z"/><path fill="#fff" d="M736.913 138.835C736.913 138.907 730.798 138.967 723.257 138.967C715.715 138.967 709.601 138.907 709.601 138.835C709.601 138.764 715.715 138.704 723.257 138.704C730.798 138.704 736.913 138.764 736.913 138.835Z"/><path fill="#fff" d="M713.611 169.958C713.611 169.964 713.533 169.981 713.377 169.993C713.198 170.011 712.976 170.029 712.712 170.053C712.424 170.077 712.071 170.101 711.657 170.107C711.243 170.113 710.776 170.137 710.254 170.125C709.217 170.125 707.976 170.053 706.609 169.91C705.242 169.748 703.75 169.508 702.203 169.149C700.656 168.777 699.212 168.328 697.923 167.861C696.634 167.382 695.495 166.89 694.566 166.429C694.092 166.213 693.684 165.98 693.319 165.788C692.953 165.596 692.647 165.417 692.396 165.267C692.168 165.129 691.982 165.015 691.826 164.919C691.7 164.835 691.634 164.788 691.634 164.782C691.64 164.776 691.712 164.805 691.85 164.871C692.012 164.955 692.21 165.057 692.444 165.177C692.701 165.315 693.013 165.482 693.385 165.656C693.756 165.836 694.17 166.052 694.644 166.261C695.579 166.699 696.718 167.166 698.007 167.633C699.296 168.082 700.734 168.526 702.269 168.891C703.804 169.245 705.29 169.496 706.645 169.664C708 169.82 709.229 169.91 710.266 169.934C710.782 169.964 711.249 169.952 711.663 169.958C712.076 169.964 712.43 169.958 712.718 169.946C712.982 169.94 713.204 169.94 713.383 169.94C713.527 169.94 713.611 169.946 713.611 169.958Z"/><path fill="#fff" d="M752.685 187.792C752.685 187.798 752.649 187.816 752.565 187.845C752.469 187.881 752.355 187.923 752.205 187.977C751.87 188.097 751.408 188.259 750.821 188.469C750.221 188.684 749.478 188.936 748.609 189.193C747.739 189.451 746.756 189.78 745.647 190.056C745.096 190.2 744.514 190.356 743.915 190.511C743.309 190.667 742.674 190.799 742.02 190.949C740.713 191.266 739.299 191.512 737.812 191.793C734.833 192.297 731.535 192.716 728.052 192.944C724.57 193.147 721.242 193.135 718.221 192.998C716.71 192.902 715.278 192.83 713.941 192.674C713.275 192.602 712.628 192.554 712.004 192.47C711.387 192.386 710.793 192.303 710.23 192.231C709.097 192.093 708.084 191.889 707.185 191.739C706.291 191.596 705.524 191.434 704.901 191.29C704.295 191.152 703.816 191.051 703.468 190.973C703.318 190.937 703.192 190.907 703.096 190.883C703.012 190.859 702.97 190.847 702.97 190.841C702.97 190.835 703.018 190.841 703.102 190.853C703.204 190.871 703.324 190.889 703.48 190.919C703.828 190.985 704.313 191.075 704.925 191.188C705.548 191.314 706.315 191.458 707.215 191.596C708.108 191.733 709.127 191.925 710.26 192.051C710.823 192.123 711.417 192.201 712.034 192.279C712.652 192.357 713.299 192.398 713.965 192.464C715.296 192.608 716.728 192.674 718.233 192.764C721.242 192.884 724.563 192.89 728.034 192.692C731.505 192.47 734.797 192.057 737.77 191.566C739.251 191.29 740.665 191.051 741.966 190.745C742.62 190.595 743.255 190.475 743.861 190.32C744.466 190.164 745.042 190.02 745.593 189.876C746.702 189.613 747.685 189.301 748.561 189.056C749.436 188.816 750.179 188.576 750.785 188.373C751.378 188.181 751.846 188.037 752.188 187.929C752.337 187.887 752.457 187.851 752.553 187.822C752.637 187.798 752.679 187.786 752.685 187.792Z"/><path fill="#FFBF9D" d="M651.871 321.086L656.966 368.167L687.312 378.274L688.541 392.939L645.714 390.075C645.714 390.075 632.519 390.399 629.642 373.014L628.94 327.334L651.871 321.086Z"/><path fill="#FFBF9D" d="M714.846 392.693C714.282 393.328 713.383 393.61 712.58 393.316C712.418 393.256 712.256 393.178 712.094 393.077C711.027 392.394 711.764 390.045 711.764 390.045L706.411 387.655C706.411 387.655 697.898 390.423 694.493 392.843C691.082 395.263 685.147 391.01 685.147 391.01L686.011 378.495L698.762 371.911C698.762 371.911 697.982 372.301 699.151 370.743C700.32 369.192 703.384 370.701 703.384 370.701C704.115 369.976 706.309 370.222 706.309 370.222L715.061 373.643C716.866 374.35 718.251 375.829 718.832 377.68L721.056 384.726C721.056 384.726 721.926 389.608 721.332 390.531C720.439 391.926 718.916 391.16 718.916 391.16C718.916 391.16 717.717 393.903 716.938 393.801C716.165 393.724 714.846 392.693 714.846 392.693Z"/><path fill="#FF9A6C" d="M696.975 391.453C696.981 391.471 697.203 391.375 697.623 391.184C698.09 390.974 698.696 390.704 699.457 390.369C701.064 389.692 703.432 388.745 706.471 387.853L706.339 387.841C707.934 388.566 709.726 389.38 711.674 390.267L711.543 389.979C711.411 390.435 711.315 390.884 711.285 391.369C711.261 391.849 711.273 392.376 711.567 392.879C711.722 393.125 711.986 393.322 712.22 393.412C712.454 393.544 712.718 393.64 712.993 393.664C713.545 393.73 714.12 393.58 714.588 393.262C714.708 393.184 714.816 393.095 714.918 392.999L714.99 392.921L715.026 392.885L715.044 392.867C715.121 392.861 714.36 392.927 714.684 392.903L714.69 392.909L714.702 392.915L714.858 393.035C715.068 393.19 715.283 393.34 715.511 393.478C715.739 393.622 715.973 393.754 716.225 393.873C716.35 393.933 716.482 393.987 716.626 394.029C716.758 394.071 716.926 394.119 717.172 394.065C717.549 393.921 717.729 393.688 717.915 393.472C718.095 393.25 718.251 393.017 718.395 392.777C718.688 392.298 718.934 391.807 719.174 391.291L718.79 391.429C719.48 391.747 720.385 391.801 721.062 391.267C721.368 391.016 721.656 390.686 721.746 390.243C721.83 389.848 721.836 389.482 721.836 389.111C721.806 387.637 721.602 386.175 721.356 384.684V384.666L721.35 384.648C720.972 383.45 720.571 382.173 720.169 380.885C719.917 380.083 719.666 379.292 719.42 378.501C719.162 377.734 718.976 376.896 718.527 376.147C718.101 375.41 717.525 374.763 716.854 374.266C716.195 373.751 715.385 373.451 714.678 373.181C711.776 372.055 709.007 370.983 706.417 369.976L706.381 369.964H706.351C705.806 369.916 705.284 369.91 704.757 369.964C704.241 370.03 703.683 370.108 703.222 370.528L703.564 370.516C702.712 369.869 701.603 369.575 700.62 369.91C699.631 370.24 699.007 371.031 698.582 371.816L698.684 371.714C695.027 373.589 692.042 375.122 689.901 376.219C688.912 376.74 688.121 377.159 687.527 377.471C686.988 377.764 686.706 377.926 686.718 377.95C686.73 377.968 687.024 377.842 687.587 377.591C688.199 377.303 689.008 376.92 690.015 376.44C692.173 375.386 695.189 373.918 698.882 372.115L698.942 372.085L698.984 372.013C699.367 371.324 699.967 370.611 700.776 370.366C701.573 370.09 702.538 370.36 703.246 370.905L703.42 371.043L703.581 370.893C703.857 370.641 704.343 370.528 704.816 370.486C705.296 370.438 705.806 370.45 706.303 370.498L706.237 370.48C708.821 371.498 711.579 372.588 714.48 373.727C715.223 374.014 715.913 374.272 716.518 374.745C717.124 375.2 717.645 375.781 718.029 376.452C718.425 377.105 718.604 377.89 718.868 378.687C719.114 379.478 719.366 380.268 719.618 381.071C720.025 382.359 720.427 383.629 720.805 384.827L720.799 384.791C721.044 386.247 721.248 387.715 721.278 389.117C721.284 389.464 721.272 389.818 721.206 390.117C721.17 390.381 720.966 390.626 720.739 390.812C720.295 391.184 719.6 391.154 719.072 390.92L718.802 390.8L718.682 391.058C718.461 391.543 718.221 392.034 717.945 392.484C717.687 392.909 717.34 393.412 717.04 393.538C717.028 393.544 716.92 393.544 716.806 393.502C716.698 393.472 716.584 393.424 716.476 393.376C716.254 393.274 716.033 393.155 715.823 393.023C715.607 392.891 715.403 392.753 715.199 392.603L715.05 392.496L715.044 392.49L715.038 392.484C715.361 392.454 714.594 392.52 714.672 392.514L714.66 392.531L714.63 392.561L714.57 392.621C714.486 392.699 714.402 392.771 714.312 392.831C713.947 393.089 713.497 393.202 713.071 393.155C712.855 393.137 712.658 393.065 712.466 392.957C712.25 392.867 712.118 392.765 712.01 392.609C711.627 391.914 711.812 390.902 712.016 390.117L712.07 389.914L711.884 389.836C709.924 388.979 708.12 388.188 706.519 387.481L706.453 387.451L706.387 387.469C703.336 388.428 700.986 389.428 699.397 390.171C698.606 390.549 698 390.86 697.605 391.082C697.173 391.309 696.969 391.435 696.975 391.453Z"/><path fill="#FF9A6C" d="M704.079 374.296C704.043 374.356 705.002 375.051 706.747 375.925C708.485 376.8 711.039 377.812 714.048 378.429L713.803 378.148C713.839 378.633 713.875 379.142 713.941 379.657C714.36 383.078 715.547 386.014 716.65 387.961C717.202 388.937 717.717 389.686 718.095 390.183C718.485 390.674 718.718 390.926 718.748 390.902C718.832 390.842 718.017 389.728 717.028 387.757C716.045 385.792 714.954 382.91 714.546 379.58C714.48 379.076 714.444 378.579 714.402 378.106L714.384 377.872L714.156 377.824C711.195 377.237 708.665 376.315 706.903 375.548C705.152 374.787 704.121 374.218 704.079 374.296Z"/><path fill="#FF9A6C" d="M711.255 381.814C711.105 381.802 711.033 384.45 712.148 387.463C713.239 390.489 715.002 392.466 715.109 392.358C715.265 392.25 713.779 390.171 712.724 387.254C711.65 384.342 711.447 381.802 711.255 381.814Z"/><path fill="#FF9A6C" d="M684.326 386.924C684.314 386.936 684.398 387.02 684.572 387.164C684.74 387.313 685.01 387.511 685.375 387.745C686.101 388.2 687.252 388.787 688.822 389.093C690.375 389.392 692.383 389.392 694.428 388.59C696.454 387.805 698.504 386.235 699.793 383.935L699.409 384.061C701.322 384.977 703.522 385.708 705.86 386.091C706.699 386.229 707.538 386.319 708.365 386.367C709.181 386.403 710.032 386.457 710.871 386.217C711.261 386.109 711.747 385.888 711.998 385.462C712.262 385.055 712.31 384.558 712.196 384.12C712.082 383.677 711.782 383.288 711.393 383.066C711.063 382.886 710.739 382.707 710.422 382.533C707.856 381.143 705.482 380.011 703.462 379.124C701.441 378.237 699.775 377.591 698.618 377.171C697.455 376.752 696.802 376.56 696.79 376.596C696.772 376.638 697.401 376.908 698.528 377.393C699.655 377.878 701.292 378.585 703.282 379.52C705.272 380.454 707.61 381.622 710.152 383.03C710.47 383.21 710.787 383.39 711.111 383.569C711.369 383.719 711.561 383.971 711.633 384.27C711.705 384.564 711.669 384.893 711.501 385.145C711.345 385.402 711.063 385.534 710.703 385.642C710.008 385.84 709.211 385.804 708.407 385.756C707.604 385.708 706.789 385.618 705.968 385.486C703.683 385.115 701.543 384.408 699.673 383.527L699.421 383.408L699.289 383.653C698.09 385.828 696.172 387.343 694.254 388.122C692.323 388.919 690.411 388.967 688.9 388.727C687.378 388.488 686.233 387.966 685.489 387.571C684.728 387.164 684.356 386.888 684.326 386.924Z"/><path fill="#1A2E35" d="M720.93 562.878C720.972 562.878 721.014 562.453 720.894 561.704C720.768 560.961 720.463 559.871 719.707 558.721C719.516 558.439 719.318 558.134 719 557.858C718.7 557.582 718.173 557.373 717.669 557.558C717.417 557.642 717.172 557.87 717.082 558.152C716.986 558.439 717.034 558.721 717.112 558.948C717.28 559.422 717.525 559.757 717.729 560.146C718.191 560.919 718.568 561.692 719.162 562.567C719.462 563.016 720.127 563.381 720.738 563.274C721.338 563.196 721.824 562.908 722.261 562.597C723.112 561.98 723.856 561.279 724.503 560.536C724.821 560.164 725.115 559.775 725.384 559.386C725.636 558.996 725.936 558.607 726.05 558.068C726.164 557.546 725.966 556.864 725.378 556.63C724.779 556.414 724.293 556.714 723.958 556.953C723.28 557.516 722.873 558.092 722.465 558.649C721.68 559.763 721.242 560.781 720.996 561.494C720.756 562.213 720.696 562.627 720.738 562.639C720.858 562.686 721.26 561.033 722.861 558.948C723.256 558.451 723.748 557.852 724.299 557.433C724.581 557.235 724.929 557.103 725.145 557.211C725.366 557.289 725.492 557.624 725.42 557.948C725.348 558.283 725.097 558.643 724.839 559.014C724.581 559.38 724.293 559.745 723.988 560.093C723.37 560.793 722.657 561.458 721.859 562.033C721.476 562.309 721.056 562.537 720.667 562.585C720.277 562.633 719.965 562.477 719.707 562.141C719.216 561.428 718.748 560.554 718.299 559.823C718.083 559.44 717.819 559.074 717.705 558.751C717.585 558.415 717.651 558.199 717.885 558.104C718.424 557.882 718.946 558.487 719.312 559.002C720.81 561.141 720.792 562.92 720.93 562.878Z"/><path fill="#FFBF9D" d="M690.471 563.92L675.352 596.672L650.947 585.403L666.588 544.87L690.471 563.92Z"/><path fill="#FF735D" d="M678.211 594.485L669.375 611.319C669.375 611.319 691.993 634.689 689.865 639.913L636.698 614.44L651.301 580.67L678.211 594.485Z"/><path fill="#E1E1E1" d="M654.04 601.141C652.877 600.931 651.613 601.746 651.349 602.896C651.091 604.052 651.906 605.34 653.069 605.574C654.226 605.808 655.779 604.873 655.905 603.699C656.031 602.525 654.988 601.057 653.807 601.111"/><g opacity=".6"><path fill="#fff" d="M636.698 614.44L638.91 610.205L689.056 636.21C689.056 636.21 690.932 638.373 689.865 639.913L636.698 614.44Z"/></g><path fill="#1A2E35" d="M670.364 611.463C670.232 611.72 668.878 611.211 667.199 611.439C665.514 611.618 664.315 612.427 664.13 612.205C663.914 612.038 665.047 610.678 667.079 610.444C669.117 610.193 670.538 611.253 670.364 611.463Z"/><path fill="#1A2E35" d="M674.836 616.441C674.776 616.723 673.44 616.621 672.031 617.298C670.604 617.933 669.813 619.011 669.561 618.873C669.297 618.795 669.849 617.19 671.611 616.387C673.368 615.566 674.95 616.189 674.836 616.441Z"/><path fill="#1A2E35" d="M674.8 624.63C674.537 624.57 674.8 623.103 676.149 622C677.492 620.892 678.985 620.916 678.991 621.186C679.033 621.467 677.882 621.857 676.791 622.773C675.67 623.666 675.07 624.726 674.8 624.63Z"/><path fill="#1A2E35" d="M672.9 604.981C672.678 605.167 671.659 604.238 670.143 603.633C668.638 602.998 667.259 602.944 667.235 602.657C667.175 602.399 668.752 601.974 670.526 602.705C672.307 603.423 673.128 604.837 672.9 604.981Z"/><path fill="#1A2E35" d="M683.193 590.112L723.052 490.42C723.052 490.42 722.159 473.412 719.024 468.039C715.889 462.665 620.931 431.333 620.931 431.333C620.931 431.333 596.742 425.516 580.616 431.333C564.49 437.15 552.399 457.297 554.635 468.488C556.877 479.679 567.164 488.749 567.164 488.749L636.152 489.977L674.213 503.851L648.579 577.262L683.193 590.112Z"/><path fill="#FFBF9D" d="M718.646 521.991L719.546 558.05L692.671 558.709L688.798 515.438L718.646 521.991Z"/><path fill="#FF735D" d="M721.14 554.827L720.649 573.829C720.649 573.829 751.264 584.822 751.666 590.447L692.707 591.046L690.896 554.299L721.14 554.827Z"/><path fill="#E1E1E1" d="M702.394 571.463C701.255 571.786 700.482 573.074 700.758 574.225C701.034 575.375 702.341 576.172 703.486 575.872C704.631 575.566 705.608 574.051 705.206 572.937C704.804 571.822 703.216 570.972 702.179 571.541"/><g opacity=".6"><path fill="#fff" d="M692.713 591.047L692.827 586.272L749.31 587.488C749.31 587.488 751.947 588.602 751.666 590.453L692.713 591.047Z"/></g><path fill="#1A2E35" d="M721.608 573.524C721.602 573.811 720.163 573.955 718.754 574.895C717.321 575.8 716.602 577.052 716.338 576.938C716.075 576.884 716.482 575.159 718.209 574.051C719.923 572.936 721.668 573.26 721.608 573.524Z"/><path fill="#1A2E35" d="M727.812 576.016C727.878 576.291 726.637 576.794 725.672 578.023C724.671 579.221 724.437 580.539 724.15 580.527C723.88 580.575 723.664 578.891 724.893 577.388C726.116 575.884 727.806 575.746 727.812 576.016Z"/><path fill="#1A2E35" d="M731.403 583.378C731.139 583.444 730.726 582.007 731.451 580.425C732.165 578.837 733.513 578.202 733.639 578.442C733.807 578.676 732.938 579.532 732.362 580.838C731.757 582.132 731.685 583.349 731.403 583.378Z"/><path fill="#1A2E35" d="M721.014 566.586C720.894 566.85 719.569 566.467 717.945 566.592C716.314 566.688 715.055 567.245 714.905 567C714.738 566.796 715.961 565.718 717.879 565.592C719.797 565.454 721.152 566.359 721.014 566.586Z"/><path fill="#1A2E35" d="M702.952 421.88C702.952 421.88 719.054 420.592 720.847 438.049C722.639 455.506 724.396 536.974 724.396 536.974L686.772 540.107L680.951 456.854L620.931 431.339C620.925 431.339 692.203 419.645 702.952 421.88Z"/><path fill="#1A2E35" d="M636.59 398.324C636.59 398.324 646.361 425.702 644.503 428.751C642.644 431.801 617.514 444.357 617.514 444.357L554.635 468.488C554.635 468.488 548.178 458.22 548.178 442.452C548.178 426.685 570.047 398.318 570.047 398.318H636.59V398.324Z"/><path fill="#375A64" d="M617.952 429.944C617.946 429.956 618.048 430.004 618.246 430.099C618.473 430.207 618.767 430.339 619.139 430.513C619.966 430.884 621.129 431.399 622.622 432.058C625.709 433.4 630.139 435.329 635.691 437.75C646.907 442.572 662.625 449.336 680.813 457.16L680.609 456.872C681.179 465.097 681.796 473.976 682.432 483.165C683.961 504.648 685.369 524.454 686.484 540.119L686.502 540.401L686.784 540.377C698.228 539.371 707.616 538.55 714.192 537.975C717.424 537.675 719.965 537.436 721.74 537.268C722.573 537.178 723.226 537.112 723.712 537.064C724.156 537.01 724.383 536.98 724.383 536.968C724.383 536.956 724.15 536.956 723.706 536.98C723.22 537.01 722.567 537.052 721.728 537.106C719.947 537.238 717.405 537.424 714.168 537.657C707.586 538.178 698.192 538.915 686.736 539.82L687.036 540.077C685.957 524.406 684.596 504.594 683.121 483.112C682.474 473.922 681.85 465.043 681.269 456.818L681.257 456.614L681.065 456.537C662.835 448.803 647.081 442.123 635.846 437.354C630.265 435.012 625.805 433.149 622.7 431.843C621.189 431.226 620.014 430.74 619.175 430.399C618.797 430.249 618.497 430.129 618.258 430.04C618.066 429.968 617.958 429.932 617.952 429.944Z"/><path fill="#375A64" d="M567.949 432.681C567.967 432.729 568.591 432.549 569.712 432.202C570.959 431.8 572.547 431.285 574.448 430.674C578.44 429.41 583.985 427.643 590.292 426.672C596.598 425.702 602.437 426.001 606.514 426.882C610.608 427.727 612.964 428.895 613.012 428.763C613.03 428.727 612.461 428.404 611.376 427.936C610.297 427.463 608.678 426.888 606.616 426.397C602.509 425.378 596.568 424.995 590.184 425.977C583.8 426.96 578.248 428.811 574.286 430.201C572.302 430.902 570.713 431.507 569.622 431.938C568.531 432.375 567.931 432.633 567.949 432.681Z"/><path fill="#375A64" d="M576.834 418.249C576.852 418.363 578.938 417.956 582.331 418.219C584.021 418.339 586.036 418.597 588.284 418.854C590.526 419.118 592.984 419.424 595.525 419.903C600.633 420.813 605.027 422.593 607.845 424.468C610.686 426.319 612.017 428.002 612.119 427.906C612.149 427.883 611.861 427.433 611.208 426.726C610.554 426.019 609.547 425.043 608.126 424.06C605.327 422.036 600.831 420.131 595.657 419.214C593.079 418.729 590.604 418.441 588.356 418.213C586.107 417.992 584.081 417.782 582.361 417.722C580.64 417.662 579.243 417.758 578.29 417.902C577.337 418.046 576.828 418.207 576.834 418.249Z"/><path fill="#1A2E35" d="M604.608 198.24C597.372 197.012 591.011 199.797 584.915 203.871C578.812 207.945 574.22 214.097 571.564 220.933C568.771 228.133 568.093 236.239 570.239 243.656C572.386 251.078 577.469 257.716 584.363 261.214C593.775 265.989 605.813 264.324 614.229 257.961C622.646 251.599 627.46 241.079 627.867 230.542C628.143 223.281 626.411 215.852 622.346 209.82C618.282 203.799 611.801 199.294 604.608 198.24Z"/><path fill="#1A2E35" d="M584.034 222.826C585.089 220.058 584.681 216.973 585.101 214.037C586.024 207.579 591.227 202.403 597.246 199.887C602.845 197.545 609.685 198.054 616.429 200.235C621.051 201.726 625.404 204.332 628.491 208.088C632.579 213.073 634.024 220.106 632.22 226.294L599.17 221.484C596.077 224.042 592.906 226.642 589.153 228.068C588.05 228.487 586.869 228.798 585.706 228.619C584.543 228.433 583.41 227.642 583.134 226.498C582.835 225.258 583.572 224.024 584.034 222.826Z"/><path fill="#FFBF9D" d="M617.137 209.358L588.284 215.469C585.49 215.655 583.308 217.943 583.254 220.741L583.602 283.14C583.626 287.406 585.053 291.539 587.666 294.906L590.418 298.453C596.694 306.54 609.403 305.725 614.193 296.679C614.529 296.05 614.757 295.493 614.859 295.044C614.955 294.481 615.104 294.109 615.128 293.636L615.68 287.555C615.962 282.002 615.998 276.353 616.004 276.407C616.004 276.407 627.813 274.915 630.835 259.71C632.34 252.15 632.441 239.659 632.196 229.439C631.974 220.243 626.327 208.747 617.137 209.358Z"/><path fill="#1A2E35" d="M627.34 242.188C627.334 243.224 626.452 244.081 625.367 244.093C624.288 244.111 623.407 243.284 623.413 242.248C623.419 241.211 624.3 240.355 625.379 240.343C626.464 240.325 627.34 241.151 627.34 242.188Z"/><path fill="#1A2E35" d="M629.234 235.826C628.982 236.071 627.538 234.915 625.421 234.837C623.311 234.729 621.717 235.76 621.501 235.49C621.393 235.37 621.657 234.921 622.352 234.454C623.036 233.992 624.187 233.561 625.505 233.615C626.818 233.675 627.909 234.202 628.527 234.723C629.156 235.244 629.36 235.718 629.234 235.826Z"/><path fill="#1A2E35" d="M607.821 241.181C607.821 242.217 606.933 243.068 605.848 243.086C604.769 243.104 603.888 242.277 603.894 241.241C603.9 240.205 604.781 239.348 605.86 239.336C606.945 239.312 607.821 240.139 607.821 241.181Z"/><path fill="#1A2E35" d="M609.176 235.31C608.924 235.556 607.473 234.4 605.363 234.322C603.253 234.214 601.658 235.238 601.442 234.975C601.334 234.855 601.598 234.406 602.294 233.938C602.977 233.477 604.128 233.046 605.447 233.1C606.76 233.16 607.851 233.687 608.468 234.208C609.092 234.729 609.295 235.203 609.176 235.31Z"/><path fill="#1A2E35" d="M615.512 251.366C615.506 251.246 616.831 251.072 618.965 250.88C619.505 250.844 620.02 250.761 620.128 250.395C620.272 250.012 620.068 249.419 619.828 248.784C619.373 247.46 618.893 246.07 618.389 244.614C616.399 238.683 614.984 233.813 615.224 233.735C615.464 233.657 617.268 238.402 619.259 244.332C619.738 245.794 620.194 247.19 620.626 248.52C620.805 249.143 621.129 249.85 620.823 250.647C620.662 251.042 620.254 251.324 619.906 251.402C619.558 251.491 619.253 251.485 618.983 251.491C616.843 251.533 615.518 251.491 615.512 251.366Z"/><path fill="#FF9A6C" d="M616.004 276.407C616.004 276.407 605.681 276.67 595.717 270.146C595.717 270.146 600.459 280.936 615.836 280.097L616.004 276.407Z"/><path fill="#FF9A6C" d="M614.421 256.422C613.702 255.391 612.389 254.786 611.064 254.876C610.141 254.942 609.2 255.343 608.612 256.068C608.025 256.793 607.869 257.847 608.348 258.578C608.888 259.399 610.069 259.633 611.088 259.387C612.107 259.141 613 258.512 613.851 257.883C614.085 257.71 614.325 257.53 614.481 257.284C614.631 257.039 614.679 256.715 614.511 256.499"/><path fill="#1A2E35" d="M609.242 252.588C609.583 252.582 609.499 254.87 611.4 256.578C613.294 258.285 615.752 258.123 615.758 258.447C615.782 258.591 615.194 258.872 614.163 258.86C613.15 258.854 611.681 258.471 610.524 257.434C609.367 256.392 608.9 255.038 608.858 254.097C608.804 253.127 609.08 252.57 609.242 252.588Z"/><path fill="#1A2E35" d="M609.056 229.044C608.828 229.607 606.724 229.254 604.236 229.458C601.742 229.607 599.716 230.26 599.404 229.727C599.266 229.476 599.638 228.948 600.465 228.427C601.286 227.906 602.587 227.427 604.08 227.319C605.573 227.211 606.928 227.505 607.815 227.906C608.714 228.307 609.158 228.775 609.056 229.044Z"/><path fill="#1A2E35" d="M628.982 226.57C628.593 227.037 627.154 226.48 625.41 226.39C623.665 226.24 622.166 226.588 621.843 226.073C621.705 225.821 621.957 225.354 622.622 224.922C623.275 224.497 624.36 224.168 625.559 224.251C626.758 224.335 627.783 224.809 628.377 225.324C628.97 225.839 629.156 226.342 628.982 226.57Z"/><path fill="#1A2E35" d="M578.746 218.369C581.737 209.586 594.8 197.623 604.044 198.455L618.647 207.609C617.652 212.623 613.678 216.931 608.75 218.321C606.118 219.063 602.971 219.219 601.37 221.436C599.74 223.7 600.597 227.055 599.074 229.391C596.964 232.626 591.371 232.363 589.765 235.879C589.063 237.413 589.375 239.276 588.649 240.798C587.678 242.829 582.439 245.321 580.305 244.596C578.171 243.871 578.237 240.223 577.577 238.294C576.444 234.999 576.972 233.315 577.403 231.5C578.416 227.199 577.319 222.562 578.746 218.369Z"/><path fill="#FFBF9D" d="M586.593 246.537C586.635 245.399 585.424 242.661 584.303 242.439C581.318 241.852 575.887 241.888 575.539 249.514C575.065 259.944 585.64 258.267 585.67 257.967C585.7 257.734 586.449 250.467 586.593 246.537Z"/><path fill="#FF9A6C" d="M582.667 253.876C582.625 253.84 582.481 253.996 582.163 254.121C581.857 254.247 581.336 254.313 580.802 254.086C579.717 253.63 578.872 251.839 578.902 249.958C578.92 249.005 579.16 248.113 579.532 247.382C579.885 246.633 580.401 246.124 580.964 246.052C581.522 245.95 581.899 246.298 582.013 246.597C582.139 246.897 582.061 247.1 582.121 247.118C582.151 247.148 582.355 246.957 582.289 246.519C582.253 246.31 582.145 246.058 581.905 245.848C581.666 245.633 581.3 245.513 580.91 245.537C580.101 245.555 579.346 246.262 578.938 247.07C578.488 247.879 578.195 248.88 578.177 249.946C578.147 252.049 579.136 254.068 580.623 254.571C581.348 254.792 581.971 254.601 582.295 254.373C582.637 254.127 582.703 253.894 582.667 253.876Z"/><path fill="#1A2E35" d="M576.51 215.667C576.546 212.402 572.469 210.269 569.286 209.532C566.109 208.795 562.746 209.76 559.88 211.329C558.208 212.246 556.517 213.552 556.146 215.421C555.768 217.29 557.572 219.525 559.359 218.854C555.93 220.028 554.197 224.599 555.978 227.75C557.764 230.901 562.578 231.764 565.348 229.427C564.454 232.417 562.506 235.077 559.922 236.832C565.288 237.599 570.989 235.304 574.334 231.039C577.679 226.767 578.536 220.693 576.51 215.667Z"/><path fill="#FF735D" d="M569.268 232.255C569.196 232.267 568.915 231.081 568.879 229.128C568.837 227.175 569.124 224.449 570.078 221.604C571.043 218.764 572.464 216.416 573.681 214.882C574.897 213.349 575.833 212.57 575.887 212.624C576.078 212.762 572.577 216.224 570.737 221.819C568.813 227.385 569.502 232.261 569.268 232.255Z"/><path fill="#1A2E35" d="M615.614 204.458C616.573 208.705 623.03 214.145 625.865 217.452C631.272 223.76 632.34 225.851 632.286 239.953C634.839 235.083 636.794 230.314 636.596 224.82C636.398 219.327 634.372 213.821 630.553 209.868C626.734 205.914 621.057 203.673 615.614 204.458Z"/><path fill="#FF735D" d="M659.874 320.481C659.874 320.481 648.627 301.742 645.504 297.949C642.579 294.397 638.808 292.3 636.29 291.198C634.887 290.587 633.419 290.167 631.914 289.904L615.74 286.327C615.74 286.327 615.71 297.362 604.146 298.039C592.576 298.722 582.84 282.619 582.84 282.619C582.84 282.619 564.155 285.507 559.683 287.807C555.21 290.108 548.185 293.025 544.318 312.375L541.602 331.306L573.818 334.283L576.9 382.131L592.882 393.25C592.882 393.25 637.183 404.758 640.013 405.519C642.842 406.28 643.784 334.283 643.784 334.283C643.784 334.283 655.162 326.933 659.874 320.481Z"/><path fill="#1A2E35" d="M638.664 312.435C638.706 312.417 638.928 312.908 639.287 313.813C639.653 314.712 640.127 316.041 640.648 317.707C641.697 321.026 642.848 325.723 643.502 331.006C644.143 336.29 644.161 341.125 643.945 344.599C643.837 346.337 643.706 347.738 643.562 348.703C643.43 349.667 643.334 350.195 643.292 350.195C643.25 350.189 643.256 349.65 643.31 348.679C643.37 347.709 643.436 346.307 643.484 344.575C643.586 341.113 643.496 336.32 642.86 331.078C642.213 325.836 641.14 321.164 640.211 317.833C639.749 316.167 639.347 314.819 639.054 313.897C638.76 312.974 638.622 312.453 638.664 312.435Z"/><path fill="#FFBF9D" d="M637.291 390.812L576.624 377.615L573.818 334.284L546.842 331.792C546.842 331.792 547.843 361.416 548.88 370.222C550.373 382.887 557.866 400.17 562.248 403.626C566.631 407.077 640.019 405.526 640.019 405.526L637.291 390.812Z"/><path fill="#FFBF9D" d="M671.725 398.666C671.3 399.511 670.412 400.062 669.465 399.984C669.279 399.966 669.082 399.93 668.878 399.864C667.535 399.433 667.661 396.701 667.661 396.701L661.228 395.653C661.228 395.653 652.866 401.039 649.892 404.609C646.919 408.18 639.329 405.286 639.329 405.286L636.698 391.591L648.531 380.898C648.531 380.898 647.806 381.533 648.621 379.532C649.437 377.531 653.153 378.286 653.153 378.286C653.735 377.297 656.163 376.944 656.163 376.944L666.54 378.142C668.68 378.388 670.592 379.592 671.743 381.407L676.132 388.35C676.132 388.35 678.451 393.347 678.08 394.509C677.516 396.264 675.664 395.875 675.664 395.875C675.664 395.875 675.154 399.163 674.291 399.277C673.434 399.397 671.725 398.666 671.725 398.666Z"/><path fill="#FF9A6C" d="M649.634 388.829C649.646 388.937 651.025 388.811 653.243 388.907C655.455 389.015 658.519 389.405 661.714 390.489C663.314 391.028 664.789 391.675 666.084 392.352C667.337 393.059 668.65 393.64 669.051 394.551C669.255 395 669.165 395.449 668.938 395.785C668.716 396.12 668.422 396.336 668.152 396.444C667.607 396.671 667.253 396.516 667.241 396.575C667.217 396.587 667.565 396.863 668.236 396.683C668.56 396.593 668.938 396.378 669.237 395.994C669.543 395.629 669.723 394.97 669.483 394.371C669.255 393.766 668.746 393.299 668.194 392.915C667.631 392.544 667.037 392.166 666.378 391.813C665.071 391.088 663.566 390.405 661.93 389.854C658.657 388.74 655.509 388.416 653.255 388.428C650.995 388.464 649.622 388.758 649.634 388.829Z"/><path fill="#FF9A6C" d="M648.909 395.443C648.921 395.641 653.148 395.461 658.333 395.766C663.524 396.054 667.703 396.707 667.733 396.509C667.751 396.425 666.72 396.15 665.029 395.856C663.339 395.557 660.983 395.257 658.369 395.107C655.755 394.958 653.375 394.994 651.667 395.095C649.952 395.203 648.903 395.359 648.909 395.443Z"/><path fill="#FF9A6C" d="M671.665 398.403C671.701 398.397 671.743 398.013 671.797 397.294C671.839 396.581 671.887 395.545 671.803 394.257C671.761 393.616 671.689 392.909 671.516 392.154C671.348 391.393 670.988 390.597 670.496 389.896C669.561 388.482 668.26 387.014 666.606 385.918C664.957 384.834 663.309 383.911 661.642 383.408C659.988 382.905 658.441 382.785 657.158 382.725C655.875 382.677 654.838 382.707 654.125 382.737C653.411 382.767 653.016 382.803 653.016 382.851C653.01 382.959 654.598 383.012 657.128 383.198C658.387 383.312 659.892 383.486 661.456 383.995C663.015 384.492 664.634 385.415 666.228 386.463C667.823 387.529 669.04 388.871 669.993 390.243C670.994 391.549 671.186 393.053 671.336 394.305C671.588 396.815 671.522 398.409 671.665 398.403Z"/><path fill="#FF9A6C" d="M656.672 379.586C656.672 379.682 658.225 379.723 660.707 380.011C663.093 380.376 666.917 380.55 669.094 383.839C671.45 386.828 673.458 389.656 674.333 391.975C675.262 394.275 675.178 395.869 675.316 395.857C675.352 395.857 675.412 395.467 675.376 394.754C675.346 394.047 675.196 393.011 674.771 391.807C673.973 389.363 671.983 386.427 669.609 383.42C669.004 382.665 668.35 381.946 667.589 381.383C666.834 380.808 665.952 380.472 665.149 380.239C663.512 379.777 662.008 379.64 660.749 379.538C658.231 379.376 656.672 379.502 656.672 379.586Z"/><path fill="#FF9A6C" d="M652.17 402.404C652.182 402.422 652.398 402.261 652.788 401.931C653.231 401.572 653.807 401.11 654.526 400.535C656.061 399.349 658.339 397.666 661.348 395.838L661.198 395.868C663.117 396.192 665.281 396.563 667.619 396.959L667.397 396.689C667.385 397.216 667.415 397.726 667.517 398.259C667.625 398.78 667.793 399.343 668.248 399.804C668.482 400.026 668.824 400.158 669.1 400.194C669.387 400.266 669.699 400.296 670.005 400.248C670.616 400.158 671.192 399.84 671.605 399.361C671.713 399.247 671.803 399.115 671.887 398.984L671.947 398.882L671.977 398.828L671.989 398.804V398.798C672.073 398.768 671.27 399.061 671.611 398.936L671.617 398.942L671.629 398.948L671.833 399.032C672.103 399.139 672.379 399.235 672.66 399.325C672.942 399.415 673.236 399.493 673.542 399.547C673.698 399.571 673.853 399.595 674.021 399.601C674.177 399.607 674.369 399.613 674.615 399.487C674.974 399.229 675.106 398.924 675.244 398.636C675.37 398.343 675.478 398.049 675.562 397.756C675.742 397.162 675.868 396.563 675.976 395.94L675.598 396.198C676.431 396.342 677.414 396.144 677.99 395.383C678.248 395.03 678.463 394.592 678.433 394.089C678.415 393.64 678.314 393.244 678.206 392.849C677.756 391.274 677.121 389.764 676.431 388.23L676.425 388.212L676.413 388.194C675.67 387.014 674.873 385.756 674.075 384.492C673.578 383.701 673.08 382.922 672.589 382.144C672.097 381.389 671.653 380.544 670.958 379.867C670.293 379.196 669.489 378.669 668.626 378.322C667.769 377.95 666.816 377.86 665.976 377.77C662.535 377.387 659.256 377.016 656.193 376.668L656.151 376.662L656.115 376.668C655.515 376.77 654.952 376.914 654.4 377.117C653.861 377.333 653.291 377.579 652.908 378.16L653.267 378.046C652.17 377.597 650.893 377.591 649.934 378.232C648.969 378.867 648.519 379.891 648.286 380.856L648.364 380.718C644.965 383.773 642.189 386.265 640.211 388.045C639.293 388.889 638.568 389.56 638.017 390.069C637.519 390.537 637.267 390.794 637.279 390.812C637.297 390.83 637.579 390.609 638.107 390.177C638.682 389.692 639.437 389.051 640.391 388.254C642.411 386.511 645.234 384.073 648.687 381.089L648.741 381.041L648.765 380.952C648.981 380.101 649.425 379.166 650.222 378.669C650.995 378.148 652.11 378.16 653.034 378.549L653.261 378.645L653.393 378.435C653.615 378.088 654.107 377.83 654.604 377.651C655.102 377.465 655.659 377.333 656.205 377.243H656.127C659.19 377.603 662.469 377.992 665.904 378.399C666.78 378.495 667.601 378.579 668.38 378.915C669.16 379.232 669.885 379.711 670.484 380.316C671.096 380.91 671.516 381.7 672.019 382.479C672.511 383.258 673.002 384.037 673.5 384.827C674.303 386.098 675.094 387.35 675.844 388.53L675.826 388.494C676.503 389.992 677.139 391.507 677.57 393.005C677.672 393.376 677.762 393.76 677.78 394.101C677.816 394.395 677.666 394.712 677.474 394.982C677.103 395.509 676.347 395.677 675.718 395.569L675.394 395.515L675.34 395.826C675.244 396.414 675.118 397.007 674.956 397.564C674.801 398.091 674.567 398.738 674.285 398.954C674.273 398.96 674.159 398.996 674.021 398.984C673.895 398.984 673.764 398.966 673.626 398.942C673.356 398.9 673.086 398.828 672.822 398.744C672.559 398.66 672.289 398.57 672.031 398.468L671.839 398.391L671.827 398.385H671.821C672.157 398.259 671.36 398.552 671.438 398.522L671.426 398.54L671.402 398.582L671.354 398.666C671.288 398.774 671.216 398.876 671.138 398.966C670.82 399.343 670.364 399.595 669.897 399.667C669.663 399.709 669.429 399.685 669.19 399.625C668.932 399.589 668.764 399.517 668.602 399.379C667.991 398.744 667.901 397.606 667.901 396.695V396.456L667.679 396.42C665.329 396.054 663.165 395.713 661.24 395.413L661.156 395.401L661.091 395.443C658.081 397.336 655.839 399.079 654.34 400.332C653.597 400.961 653.04 401.464 652.668 401.817C652.338 402.195 652.158 402.386 652.17 402.404Z"/><path fill="#E1E1E1" d="M738.172 358.828L658.261 359.475C655.671 359.475 653.189 360.721 652.806 363.279L644.071 421.479H602.911C601.586 421.479 600.513 422.551 600.513 423.875C600.513 425.199 601.586 426.271 602.911 426.271H643.358H651.031H734.371L743.357 364.842C743.837 361.685 741.385 358.828 738.172 358.828Z"/><path fill="#1A2E35" d="M738.171 358.828C738.171 358.828 738.609 358.774 739.43 358.948C740.228 359.133 741.493 359.624 742.482 360.972C742.979 361.631 743.351 362.506 743.471 363.518C743.603 364.549 743.309 365.633 743.177 366.801C742.841 369.156 742.458 371.864 742.026 374.907C740.27 387.11 737.734 404.693 734.617 426.313L734.587 426.523H734.371C700.356 426.541 655.653 426.571 606.838 426.601C605.693 426.601 604.548 426.601 603.403 426.601C602.875 426.625 602.138 426.595 601.586 426.254C601.017 425.942 600.579 425.415 600.357 424.81C599.878 423.594 600.453 422.096 601.598 421.491C602.144 421.161 602.875 421.131 603.397 421.155H605.087C609.589 421.155 614.043 421.155 618.443 421.155C627.244 421.155 635.81 421.161 644.065 421.161L643.759 421.425C646.901 400.583 649.838 381.137 652.464 363.692C652.554 362.59 653.057 361.392 653.945 360.649C654.814 359.882 655.911 359.469 657.002 359.301C658.117 359.133 659.172 359.223 660.227 359.187C661.282 359.181 662.325 359.175 663.362 359.163C667.511 359.133 671.527 359.109 675.394 359.085C683.127 359.037 690.279 358.989 696.771 358.948C709.744 358.882 720.085 358.828 727.207 358.792C730.744 358.786 733.477 358.78 735.348 358.78C736.259 358.786 736.96 358.786 737.452 358.792C737.932 358.816 738.171 358.828 738.171 358.828C738.171 358.828 737.932 358.846 737.458 358.864C736.966 358.876 736.271 358.888 735.354 358.906C733.483 358.93 730.75 358.971 727.213 359.025C720.091 359.103 709.75 359.217 696.777 359.361C690.285 359.427 683.133 359.499 675.4 359.571C671.533 359.607 667.517 359.648 663.368 359.684C662.331 359.696 661.288 359.702 660.233 359.714C659.184 359.75 658.099 359.666 657.092 359.828C656.079 359.99 655.072 360.373 654.304 361.056C653.519 361.739 653.105 362.692 653.003 363.782C650.402 381.227 647.494 400.679 644.383 421.527L644.341 421.79H644.071C635.816 421.79 627.244 421.796 618.449 421.796C614.049 421.796 609.595 421.796 605.093 421.796H603.403C602.809 421.778 602.359 421.802 601.916 422.054C601.041 422.515 600.603 423.653 600.969 424.582C601.136 425.043 601.472 425.445 601.904 425.684C602.353 425.942 602.803 425.966 603.403 425.948C604.542 425.948 605.687 425.948 606.838 425.948C655.653 425.978 700.356 426.002 734.371 426.026L734.125 426.236C737.332 404.627 739.94 387.056 741.75 374.859C742.206 371.816 742.614 369.114 742.967 366.765C743.111 365.591 743.411 364.513 743.291 363.53C743.189 362.548 742.835 361.691 742.362 361.05C741.415 359.726 740.192 359.223 739.406 359.013C738.609 358.828 738.171 358.864 738.171 358.828Z"/><path fill="#fff" d="M689.83 391.819C689.83 394.58 692.072 396.821 694.835 396.821C697.599 396.821 699.841 394.58 699.841 391.819C699.841 389.057 697.599 386.816 694.835 386.816C692.066 386.816 689.83 389.057 689.83 391.819Z"/><path fill="#1A2E35" d="M647.314 425.744C647.428 425.762 649.97 410.941 652.998 392.645C656.025 374.344 658.381 359.499 658.267 359.475C658.153 359.457 655.611 374.272 652.584 392.573C649.563 410.875 647.201 425.726 647.314 425.744Z"/><path fill="#E1E1E1" d="M465.93 372.756C465.93 372.756 465.444 373.038 464.479 373.565C463.52 374.098 462.063 374.835 460.217 375.925C456.5 378.046 451.075 381.305 444.523 386.133C437.982 390.95 430.285 397.324 422.384 405.753C418.433 409.964 414.429 414.673 410.532 419.927C406.599 425.157 402.907 431.04 399.765 437.582C398.255 440.877 396.858 444.321 395.755 447.958C394.694 451.6 393.897 455.404 393.537 459.334C393.201 463.27 393.393 467.326 394.178 471.346C394.526 473.37 395.179 475.335 395.827 477.318C396.576 479.265 397.433 481.194 398.507 483.028C402.727 490.426 409.393 496.632 417.264 501.114C425.147 505.631 434.253 508.356 443.701 509.926C448.437 510.717 453.275 511.244 458.179 511.621C460.631 511.831 463.106 511.915 465.594 512.023C468.082 512.131 470.582 512.238 473.094 512.346C475.606 512.502 478.135 512.454 480.677 512.448C483.219 512.442 485.773 512.436 488.338 512.43C490.904 512.478 493.482 512.262 496.072 512.172C498.662 512.053 501.263 511.933 503.871 511.813C524.757 510.549 546.242 507.224 567.853 502.216C611.136 492.163 650.701 476.51 685.531 460.263C702.976 452.199 719.3 443.776 733.052 433.592C739.928 428.524 746.079 422.97 751.342 417.051C751.995 416.309 752.649 415.566 753.29 414.829C753.932 414.086 754.507 413.301 755.113 412.54C755.712 411.78 756.306 411.019 756.899 410.264C757.445 409.473 757.99 408.694 758.536 407.91C760.784 404.842 762.612 401.601 764.105 398.3C767.06 391.711 768.751 384.833 768.475 378.309C768.205 371.815 765.724 365.765 761.563 361.775C757.451 357.731 752.229 355.694 747.421 354.79C742.56 353.897 737.986 354.113 733.993 354.802C729.988 355.467 726.518 356.527 723.562 357.551C720.607 358.582 718.155 359.594 716.183 360.421C714.222 361.266 712.724 361.907 711.704 362.344C710.697 362.781 710.176 362.991 710.176 362.991C710.176 362.991 710.679 362.739 711.68 362.284C712.682 361.829 714.168 361.152 716.135 360.301C718.101 359.457 720.547 358.42 723.502 357.372C726.458 356.329 729.929 355.245 733.951 354.556C737.962 353.849 742.572 353.61 747.475 354.49C752.331 355.383 757.618 357.42 761.815 361.523C766.059 365.567 768.601 371.726 768.889 378.303C769.182 384.911 767.492 391.848 764.525 398.504C763.026 401.829 761.179 405.112 758.931 408.197C758.386 408.982 757.84 409.773 757.295 410.564C756.701 411.324 756.102 412.091 755.502 412.858C754.897 413.619 754.315 414.416 753.674 415.158C753.027 415.901 752.373 416.644 751.72 417.393C746.438 423.348 740.264 428.937 733.376 434.029C719.588 444.261 703.24 452.726 685.789 460.808C650.947 477.097 611.352 492.786 568.003 502.857C524.751 512.969 481.804 515.797 443.599 510.525C434.104 508.937 424.938 506.188 416.976 501.617C409.033 497.088 402.301 490.804 398.039 483.303C396.954 481.44 396.085 479.487 395.329 477.51C394.67 475.503 394.016 473.508 393.663 471.453C392.877 467.38 392.692 463.27 393.033 459.298C393.405 455.326 394.22 451.486 395.293 447.826C396.408 444.172 397.823 440.703 399.346 437.396C402.517 430.824 406.234 424.923 410.19 419.693C414.117 414.434 418.139 409.719 422.108 405.513C430.051 397.09 437.79 390.734 444.361 385.936C450.943 381.131 456.398 377.902 460.139 375.817C463.898 373.72 465.93 372.756 465.93 372.756Z"/><path fill="#122438" d="M449.121 402.386L449.211 419.675C449.211 419.675 477.938 403.41 469.509 387.948L449.121 402.386Z"/><path fill="#122438" d="M451.926 362.439C451.926 362.439 431.25 354.873 415.532 368.939L431.646 378.027L451.926 362.439Z"/><path fill="#F5F5F5" d="M431.652 378.028C432.305 378.884 449.127 402.386 449.127 402.386L493.069 371.264C500.742 365.83 502.115 354.999 496.042 347.822C490.503 341.28 480.797 340.244 474.005 345.468L431.652 378.028Z"/><path fill="#1A2E35" d="M431.652 378.033C431.64 378.033 431.76 377.932 432.006 377.734C432.275 377.518 432.641 377.225 433.103 376.859C434.11 376.069 435.555 374.942 437.395 373.498C441.184 370.551 446.615 366.328 453.311 361.116C456.692 358.498 460.385 355.634 464.354 352.561C466.344 351.021 468.4 349.434 470.516 347.798C471.577 346.977 472.65 346.151 473.741 345.312C474.868 344.497 476.055 343.701 477.392 343.173C478.04 342.856 478.741 342.682 479.43 342.442C480.138 342.293 480.845 342.077 481.577 342.017C483.027 341.789 484.532 341.819 486.019 342.017C488.992 342.413 491.93 343.677 494.31 345.695C495.538 346.672 496.534 347.912 497.445 349.206C498.308 350.542 498.997 351.998 499.471 353.543C500.376 356.641 500.37 360.049 499.351 363.206C498.362 366.208 496.552 368.934 494.118 370.851C491.678 372.72 489.214 374.361 486.822 376.086C482.02 379.477 477.386 382.754 472.956 385.887C464.096 392.136 456.075 397.791 449.253 402.596L449.061 402.733L448.923 402.542C443.57 394.987 439.229 388.865 436.202 384.593C434.733 382.509 433.588 380.873 432.785 379.735C432.419 379.202 432.126 378.788 431.916 378.477C431.73 378.171 431.64 378.027 431.652 378.033C431.664 378.033 431.778 378.183 431.994 378.465C432.227 378.776 432.533 379.196 432.929 379.729C433.762 380.861 434.949 382.485 436.472 384.563C439.529 388.769 443.911 394.808 449.319 402.254L448.989 402.2C455.787 397.366 463.784 391.674 472.614 385.39C477.039 382.251 481.667 378.962 486.462 375.559C488.836 373.846 491.348 372.163 493.716 370.341C496.054 368.502 497.786 365.884 498.74 363.003C499.717 359.965 499.723 356.694 498.86 353.717C498.404 352.237 497.745 350.836 496.917 349.553C496.042 348.313 495.089 347.109 493.908 346.175C491.618 344.234 488.8 343.012 485.941 342.628C484.514 342.436 483.063 342.407 481.667 342.616C480.959 342.676 480.282 342.88 479.598 343.018C478.939 343.245 478.255 343.413 477.638 343.719C475.066 344.755 473.04 346.654 470.9 348.23C468.79 349.841 466.739 351.411 464.755 352.926C460.787 355.952 457.088 358.773 453.713 361.349C446.951 366.489 441.471 370.653 437.647 373.558C435.758 374.984 434.278 376.098 433.241 376.883C432.749 377.249 432.365 377.536 432.078 377.746C431.802 377.932 431.658 378.033 431.652 378.033Z"/><path fill="#122438" d="M452.705 376.685L425.243 396.419C425.243 396.419 426.424 399.432 427.18 399.127C427.809 398.869 448.491 384.797 455.199 380.226C456.296 379.477 456.458 377.938 455.553 376.967C454.809 376.17 453.587 376.05 452.705 376.685Z"/><path fill="#F28334" d="M481.193 364.303C481.517 369.359 477.68 373.72 472.62 374.05C467.561 374.373 463.196 370.539 462.867 365.483C462.543 360.427 466.38 356.065 471.439 355.736C476.499 355.412 480.869 359.246 481.193 364.303Z"/><path fill="#1A2E35" d="M481.193 364.303C481.121 364.315 481.109 363.488 480.647 362.122C480.192 360.78 479.136 358.845 476.984 357.443C475.917 356.76 474.598 356.203 473.112 356.048C471.637 355.898 469.994 356.06 468.472 356.761C466.949 357.425 465.528 358.588 464.563 360.121C463.568 361.643 463.076 363.542 463.184 365.459C463.328 367.376 464.06 369.197 465.241 370.581C466.392 371.983 467.95 372.953 469.551 373.415C471.151 373.912 472.8 373.858 474.245 373.523C475.695 373.175 476.936 372.456 477.908 371.641C479.862 369.97 480.659 367.915 480.941 366.531C481.211 365.118 481.121 364.303 481.193 364.303C481.217 364.303 481.241 364.501 481.265 364.89C481.301 365.273 481.289 365.854 481.169 366.579C480.959 368.017 480.204 370.186 478.189 371.983C477.194 372.864 475.899 373.642 474.365 374.032C472.842 374.409 471.091 374.487 469.383 373.972C467.674 373.493 466.008 372.474 464.767 370.977C463.496 369.509 462.705 367.556 462.555 365.501C462.441 363.446 462.975 361.409 464.042 359.792C465.079 358.15 466.601 356.928 468.232 356.233C469.863 355.502 471.607 355.353 473.166 355.538C474.736 355.73 476.115 356.335 477.218 357.078C479.448 358.6 480.473 360.654 480.869 362.05C481.079 362.757 481.163 363.326 481.181 363.716C481.211 364.099 481.217 364.297 481.193 364.303Z"/><path fill="#122438" d="M495.119 369.533C509.878 355.742 507.24 339.771 507.24 339.771C487.391 334.559 473.993 345.474 473.993 345.474C487.211 347.331 494.279 355.323 495.119 369.533Z"/></svg>